<?xml version="1.0" encoding="utf-8"?>
<!-- Generator: Adobe Illustrator 21.0.2, SVG Export Plug-In . SVG Version: 6.00 Build 0)  -->
<svg version="1.1" xmlns="http://www.w3.org/2000/svg" xmlns:xlink="http://www.w3.org/1999/xlink" x="0px" y="0px"
	 viewBox="0 0 53 53" style="enable-background:new 0 0 53 53;" xml:space="preserve">
<g id="Layer_1">
</g>
<g id="Layer_2">
	
		<polyline style="fill:none;stroke:#394447;stroke-width:2;stroke-linecap:round;stroke-linejoin:round;stroke-miterlimit:10;" points="
		10,46 9,52 11,52 14,48 	"/>
	<path style="fill:none;stroke:#394447;stroke-width:2;stroke-linecap:round;stroke-linejoin:round;stroke-miterlimit:10;" d="
		M34,32H4v3c0,7.1,5.9,13,13,13h19c7.1,0,13-5.9,13-13v-3h-4"/>
	
		<polyline style="fill:none;stroke:#394447;stroke-width:2;stroke-linecap:round;stroke-linejoin:round;stroke-miterlimit:10;" points="
		43,46 44,52 42,52 39,48 	"/>
	<path style="fill:none;stroke:#394447;stroke-width:2;stroke-linecap:round;stroke-linejoin:round;stroke-miterlimit:10;" d="
		M34,32H2.5C1.7,32,1,31.3,1,30.5v0C1,29.7,1.7,29,2.5,29H34h11h5.5c0.8,0,1.5,0.7,1.5,1.5v0c0,0.8-0.7,1.5-1.5,1.5H45H34z"/>
	<path style="fill:none;stroke:#394447;stroke-width:2;stroke-linecap:round;stroke-linejoin:round;stroke-miterlimit:10;" d="M5,29
		V9c0-4.4,3.6-8,8-8h0c4.4,0,8,3.6,8,8"/>
	<path style="fill:none;stroke:#394447;stroke-width:2;stroke-linecap:round;stroke-linejoin:round;stroke-miterlimit:10;" d="M21,9
		c-2.8,0-5,2.2-5,5h10C26,11.2,23.8,9,21,9z"/>
	
		<line style="fill:none;stroke:#394447;stroke-width:2;stroke-linecap:round;stroke-linejoin:round;stroke-miterlimit:10;" x1="18" y1="17" x2="18" y2="25"/>
	
		<line style="fill:none;stroke:#394447;stroke-width:2;stroke-linecap:round;stroke-linejoin:round;stroke-miterlimit:10;" x1="21" y1="17" x2="21" y2="25"/>
	
		<line style="fill:none;stroke:#394447;stroke-width:2;stroke-linecap:round;stroke-linejoin:round;stroke-miterlimit:10;" x1="24" y1="17" x2="24" y2="25"/>
</g>
</svg>
