<?xml version="1.0" encoding="utf-8"?>
<!-- Generator: Adobe Illustrator 21.0.2, SVG Export Plug-In . SVG Version: 6.00 Build 0)  -->
<svg version="1.1" xmlns="http://www.w3.org/2000/svg" xmlns:xlink="http://www.w3.org/1999/xlink" x="0px" y="0px"
	 viewBox="0 0 53 38" style="enable-background:new 0 0 53 38;" xml:space="preserve">
<g id="Layer_1">
</g>
<g id="Layer_2">
	<path style="fill:none;stroke:#394447;stroke-width:2;stroke-linecap:round;stroke-linejoin:round;stroke-miterlimit:10;" d="
		M51,37H2c-0.5,0-1-0.5-1-1V2c0-0.5,0.5-1,1-1h49c0.5,0,1,0.5,1,1v34C52,36.5,51.5,37,51,37z"/>
	
		<circle style="fill:none;stroke:#394447;stroke-width:2;stroke-linecap:round;stroke-linejoin:round;stroke-miterlimit:10;" cx="26.5" cy="5.5" r="1.5"/>
	<path style="fill:none;stroke:#394447;stroke-width:2;stroke-linecap:round;stroke-linejoin:round;stroke-miterlimit:10;" d="
		M23,34H6c-1.1,0-2-0.9-2-2V11c0-1.1,0.9-2,2-2h17c1.1,0,2,0.9,2,2v21C25,33.1,24.1,34,23,34z"/>
	<path style="fill:none;stroke:#394447;stroke-width:2;stroke-linecap:round;stroke-linejoin:round;stroke-miterlimit:10;" d="
		M47,34H30c-1.1,0-2-0.9-2-2V11c0-1.1,0.9-2,2-2h17c1.1,0,2,0.9,2,2v21C49,33.1,48.1,34,47,34z"/>
	<path style="fill:none;stroke:#394447;stroke-width:2;stroke-linecap:round;stroke-linejoin:round;stroke-miterlimit:10;" d="
		M18,23h-7c-0.6,0-1-0.5-1-1v-7c0-0.6,0.4-1,1-1h7c0.5,0,1,0.4,1,1v7C19,22.5,18.5,23,18,23z"/>
	
		<circle style="fill:none;stroke:#394447;stroke-width:2;stroke-linecap:round;stroke-linejoin:round;stroke-miterlimit:10;" cx="14.5" cy="18.5" r="1.5"/>
	<path style="fill:none;stroke:#394447;stroke-width:2;stroke-linecap:round;stroke-linejoin:round;stroke-miterlimit:10;" d="
		M42,23h-7c-0.5,0-1-0.5-1-1v-7c0-0.6,0.5-1,1-1h7c0.5,0,1,0.4,1,1v7C43,22.5,42.5,23,42,23z"/>
	
		<circle style="fill:none;stroke:#394447;stroke-width:2;stroke-linecap:round;stroke-linejoin:round;stroke-miterlimit:10;" cx="38.5" cy="18.5" r="1.5"/>
</g>
</svg>
