<?xml version="1.0" encoding="utf-8"?>
<!-- Generator: Adobe Illustrator 21.0.2, SVG Export Plug-In . SVG Version: 6.00 Build 0)  -->
<svg version="1.1" xmlns="http://www.w3.org/2000/svg" xmlns:xlink="http://www.w3.org/1999/xlink" x="0px" y="0px"
	 viewBox="0 0 51 36" style="enable-background:new 0 0 51 36;" xml:space="preserve">
<g id="Layer_1">
</g>
<g id="Layer_2">
	<g>
		
			<polyline style="fill:none;stroke:#394447;stroke-width:2;stroke-linecap:round;stroke-linejoin:round;stroke-miterlimit:10;" points="
			5,8 5,12 7.6,13.5 		"/>
		
			<polygon style="fill:none;stroke:#394447;stroke-width:2;stroke-linecap:round;stroke-linejoin:round;stroke-miterlimit:10;" points="
			12,12 26,5 19,1 5,8 		"/>
	</g>
	<g>
		
			<polyline style="fill:none;stroke:#394447;stroke-width:2;stroke-linecap:round;stroke-linejoin:round;stroke-miterlimit:10;" points="
			4,16 4,20 7,21.7 		"/>
		
			<polygon style="fill:none;stroke:#394447;stroke-width:2;stroke-linecap:round;stroke-linejoin:round;stroke-miterlimit:10;" points="
			11,20 25,13 18,9 4,16 		"/>
	</g>
	<g>
		
			<polygon style="fill:none;stroke:#394447;stroke-width:2;stroke-linecap:round;stroke-linejoin:round;stroke-miterlimit:10;" points="
			25,13 39,6 32,2 18,9 		"/>
	</g>
	<g>
		
			<polygon style="fill:none;stroke:#394447;stroke-width:2;stroke-linecap:round;stroke-linejoin:round;stroke-miterlimit:10;" points="
			8,29 22,22 15,18 1,25 		"/>
		
			<polyline style="fill:none;stroke:#394447;stroke-width:2;stroke-linecap:round;stroke-linejoin:round;stroke-miterlimit:10;" points="
			1,25 1,29 8,33 13.7,30.1 		"/>
		
			<line style="fill:none;stroke:#394447;stroke-width:2;stroke-linecap:round;stroke-linejoin:round;stroke-miterlimit:10;" x1="8" y1="29" x2="8" y2="33"/>
	</g>
	<g>
		
			<polygon style="fill:none;stroke:#394447;stroke-width:2;stroke-linecap:round;stroke-linejoin:round;stroke-miterlimit:10;" points="
			22,22 36,15 29,11 15,18 		"/>
	</g>
	<g>
		
			<polygon style="fill:none;stroke:#394447;stroke-width:2;stroke-linecap:round;stroke-linejoin:round;stroke-miterlimit:10;" points="
			36,15 50,8 43,4 29,11 		"/>
		
			<polyline style="fill:none;stroke:#394447;stroke-width:2;stroke-linecap:round;stroke-linejoin:round;stroke-miterlimit:10;" points="
			45.9,14.1 50,12 50,8 		"/>
	</g>
	<g>
		
			<polyline style="fill:none;stroke:#394447;stroke-width:2;stroke-linecap:round;stroke-linejoin:round;stroke-miterlimit:10;" points="
			14,26 14,30 21,34 26.6,31.2 		"/>
		
			<polygon style="fill:none;stroke:#394447;stroke-width:2;stroke-linecap:round;stroke-linejoin:round;stroke-miterlimit:10;" points="
			21,30 35,23 28,19 14,26 		"/>
		
			<line style="fill:none;stroke:#394447;stroke-width:2;stroke-linecap:round;stroke-linejoin:round;stroke-miterlimit:10;" x1="21" y1="30" x2="21" y2="34"/>
	</g>
	<g>
		
			<polygon style="fill:none;stroke:#394447;stroke-width:2;stroke-linecap:round;stroke-linejoin:round;stroke-miterlimit:10;" points="
			35,23 49,16 42,12 28,19 		"/>
		
			<polyline style="fill:none;stroke:#394447;stroke-width:2;stroke-linecap:round;stroke-linejoin:round;stroke-miterlimit:10;" points="
			45,22 49,20 49,16 		"/>
	</g>
	<g>
		
			<polyline style="fill:none;stroke:#394447;stroke-width:2;stroke-linecap:round;stroke-linejoin:round;stroke-miterlimit:10;" points="
			27,27 27,31 34,35 48,28 48,24 		"/>
		
			<polygon style="fill:none;stroke:#394447;stroke-width:2;stroke-linecap:round;stroke-linejoin:round;stroke-miterlimit:10;" points="
			34,31 48,24 41,20 27,27 		"/>
		
			<line style="fill:none;stroke:#394447;stroke-width:2;stroke-linecap:round;stroke-linejoin:round;stroke-miterlimit:10;" x1="34" y1="31" x2="34" y2="35"/>
	</g>
</g>
</svg>
