<?xml version="1.0" encoding="utf-8"?>
<!-- Generator: Adobe Illustrator 21.0.2, SVG Export Plug-In . SVG Version: 6.00 Build 0)  -->
<svg version="1.1" xmlns="http://www.w3.org/2000/svg" xmlns:xlink="http://www.w3.org/1999/xlink" x="0px" y="0px"
	 viewBox="0 0 53 53" style="enable-background:new 0 0 53 53;" xml:space="preserve">
<g id="Layer_1">
</g>
<g id="Layer_2">
	<path style="fill:none;stroke:#394447;stroke-width:2;stroke-linecap:round;stroke-linejoin:round;stroke-miterlimit:10;" d="
		M23,23H6c-1.1,0-2,0.9-2,2v27h21V25C25,23.9,24.1,23,23,23z"/>
	<path style="fill:none;stroke:#394447;stroke-width:2;stroke-linecap:round;stroke-linejoin:round;stroke-miterlimit:10;" d="M6,23
		V3c0-1.1,0.9-2,2-2h13c1.1,0,2,0.9,2,2v20"/>
	<path style="fill:none;stroke:#394447;stroke-width:2;stroke-linecap:round;stroke-linejoin:round;stroke-miterlimit:10;" d="
		M26,51h1c0.5,0,1-0.5,1-1v-6c0-0.5-0.5-1-1-1h-1c-0.5,0-1,0.5-1,1v6C25,50.5,25.5,51,26,51z"/>
	<path style="fill:none;stroke:#394447;stroke-width:2;stroke-linecap:round;stroke-linejoin:round;stroke-miterlimit:10;" d="M2,51
		h1c0.5,0,1-0.5,1-1v-6c0-0.5-0.5-1-1-1H2c-0.5,0-1,0.5-1,1v6C1,50.5,1.5,51,2,51z"/>
	
		<line style="fill:none;stroke:#394447;stroke-width:2;stroke-linecap:round;stroke-linejoin:round;stroke-miterlimit:10;" x1="6" y1="5" x2="23" y2="5"/>
	
		<polyline style="fill:none;stroke:#394447;stroke-width:2;stroke-linecap:round;stroke-linejoin:round;stroke-miterlimit:10;" points="
		19,14 29,14 29,18 33,18 	"/>
	
		<line style="fill:none;stroke:#394447;stroke-width:2;stroke-linecap:round;stroke-linejoin:round;stroke-miterlimit:10;" x1="10" y1="9" x2="10" y2="19"/>
	
		<line style="fill:none;stroke:#394447;stroke-width:2;stroke-linecap:round;stroke-linejoin:round;stroke-miterlimit:10;" x1="13" y1="9" x2="13" y2="19"/>
	
		<line style="fill:none;stroke:#394447;stroke-width:2;stroke-linecap:round;stroke-linejoin:round;stroke-miterlimit:10;" x1="16" y1="9" x2="16" y2="19"/>
	
		<line style="fill:none;stroke:#394447;stroke-width:2;stroke-linecap:round;stroke-linejoin:round;stroke-miterlimit:10;" x1="19" y1="9" x2="19" y2="19"/>
	
		<line style="fill:none;stroke:#394447;stroke-width:2;stroke-linecap:round;stroke-linejoin:round;stroke-miterlimit:10;" x1="10" y1="14" x2="6" y2="14"/>
	
		<rect x="12" y="26" style="fill:none;stroke:#394447;stroke-width:2;stroke-linecap:round;stroke-linejoin:round;stroke-miterlimit:10;" width="5" height="6"/>
	
		<rect x="4" y="48" style="fill:none;stroke:#394447;stroke-width:2;stroke-linecap:round;stroke-linejoin:round;stroke-miterlimit:10;" width="7" height="4"/>
	
		<rect x="18" y="48" style="fill:none;stroke:#394447;stroke-width:2;stroke-linecap:round;stroke-linejoin:round;stroke-miterlimit:10;" width="7" height="4"/>
	
		<line style="fill:none;stroke:#394447;stroke-width:2;stroke-linecap:round;stroke-linejoin:round;stroke-miterlimit:10;" x1="32.2" y1="9.1" x2="37.7" y2="20.5"/>
	
		<polygon style="fill:none;stroke:#394447;stroke-width:2;stroke-linecap:round;stroke-linejoin:round;stroke-miterlimit:10;" points="
		28.6,6.4 31.3,9.5 33.1,8.6 32.2,4.6 30.9,1.9 27.3,3.7 	"/>
	
		<polyline style="fill:none;stroke:#394447;stroke-width:2;stroke-linecap:round;stroke-linejoin:round;stroke-miterlimit:10;" points="
		43.9,37.9 41.2,41.4 43.5,46.3 	"/>
	<path style="fill:none;stroke:#394447;stroke-width:2;stroke-linecap:round;stroke-linejoin:round;stroke-miterlimit:10;" d="
		M21,23v19c0,0-2.2,2-6.5,2S8,42,8,42V23"/>
	<path style="fill:none;stroke:#394447;stroke-width:2;stroke-linecap:round;stroke-linejoin:round;stroke-miterlimit:10;" d="
		M51.8,45.1l-2.2-4.5c0,0,0,0,0,0l-9.6-19.8c-0.2-0.5-0.8-0.7-1.3-0.5l-1.8,0.9c-0.5,0.2-0.7,0.8-0.5,1.3l9.6,19.8
		c0.6,1.3,0.3,1.6-0.5,2.6l-3.4,3.8c-0.4,0.4-0.5,1-0.1,1.4l1.3,1.5c0.4,0.4,1,0.5,1.4,0.1c0,0,3.6-3.9,3.6-3.9
		c0.2-0.2,0.3-0.3,0.4-0.5c0.3,0.1,0.6,0.1,0.8,0l1.8-0.9C51.9,46.2,52.1,45.6,51.8,45.1z"/>
	<path style="fill:none;stroke:#394447;stroke-width:2;stroke-linecap:round;stroke-linejoin:round;stroke-miterlimit:10;" d="
		M42,51h-6c-2.2,0-4-1.8-4-4v-9"/>
	<path style="fill:none;stroke:#394447;stroke-width:2;stroke-linecap:round;stroke-linejoin:round;stroke-miterlimit:10;" d="
		M32,42v-9c0-2.2-1.8-4-4-4h-3"/>
	<line style="fill:none;stroke:#394447;stroke-linecap:square;stroke-miterlimit:10;" x1="14.5" y1="28.5" x2="14.5" y2="29.5"/>
</g>
</svg>
