<?xml version="1.0" encoding="utf-8"?>
<!-- Generator: Adobe Illustrator 21.0.2, SVG Export Plug-In . SVG Version: 6.00 Build 0)  -->
<svg version="1.1" xmlns="http://www.w3.org/2000/svg" xmlns:xlink="http://www.w3.org/1999/xlink" x="0px" y="0px"
	 viewBox="0 0 50 51" style="enable-background:new 0 0 50 51;" xml:space="preserve">
<g id="Layer_1">
</g>
<g id="Layer_2">
	<path style="fill:none;stroke:#394447;stroke-width:2;stroke-linecap:round;stroke-linejoin:round;stroke-miterlimit:10;" d="M40,3
		c0-1.1-2.2-2-5-2s-5,0.9-5,2H20c0-1.1-2.2-2-5-2s-5,0.9-5,2H1v43h9c0-1.1,2.2-2,5-2s5,0.9,5,2h10c0-1.1,2.2-2,5-2s5,0.9,5,2h9V3H40
		z"/>
	<path style="fill:none;stroke:#394447;stroke-width:2;stroke-linecap:round;stroke-linejoin:round;stroke-miterlimit:10;" d="M1,7
		v43h9c0-1.1,2.2-2,5-2s5,0.9,5,2h10c0-1.1,2.2-2,5-2s5,0.9,5,2h9V7"/>
	
		<line style="fill:none;stroke:#394447;stroke-width:2;stroke-linecap:round;stroke-linejoin:round;stroke-miterlimit:10;" x1="10" y1="3" x2="10" y2="41"/>
	
		<line style="fill:none;stroke:#394447;stroke-width:2;stroke-linecap:round;stroke-linejoin:round;stroke-miterlimit:10;" x1="20" y1="3" x2="20" y2="41"/>
	
		<line style="fill:none;stroke:#394447;stroke-width:2;stroke-linecap:round;stroke-linejoin:round;stroke-miterlimit:10;" x1="30" y1="3" x2="30" y2="41"/>
	
		<line style="fill:none;stroke:#394447;stroke-width:2;stroke-linecap:round;stroke-linejoin:round;stroke-miterlimit:10;" x1="40" y1="3" x2="40" y2="41"/>
</g>
</svg>
