<?xml version="1.0" encoding="utf-8"?>
<!-- Generator: Adobe Illustrator 21.0.2, SVG Export Plug-In . SVG Version: 6.00 Build 0)  -->
<svg version="1.1" xmlns="http://www.w3.org/2000/svg" xmlns:xlink="http://www.w3.org/1999/xlink" x="0px" y="0px"
	 viewBox="0 0 47 53" style="enable-background:new 0 0 47 53;" xml:space="preserve">
<g id="Layer_1">
</g>
<g id="Layer_2">
	
		<polyline style="fill:none;stroke:#394447;stroke-width:2;stroke-linecap:round;stroke-linejoin:round;stroke-miterlimit:10;" points="
		9,17.9 9,3 43,1 	"/>
	
		<polyline style="fill:none;stroke:#394447;stroke-width:2;stroke-linecap:round;stroke-linejoin:round;stroke-miterlimit:10;" points="
		43,52 9,50 9,44.2 	"/>
	
		<polyline style="fill:none;stroke:#394447;stroke-width:2;stroke-linecap:round;stroke-linejoin:round;stroke-miterlimit:10;" points="
		40,17.2 31,45 3,43.6 3,40.9 	"/>
	
		<polyline style="fill:none;stroke:#394447;stroke-width:2;stroke-linecap:round;stroke-linejoin:round;stroke-miterlimit:10;" points="
		39,11.2 14,12.4 4,40.7 	"/>
	
		<polygon style="fill:none;stroke:#394447;stroke-width:2;stroke-linecap:round;stroke-linejoin:round;stroke-miterlimit:10;" points="
		29,42 1,40.6 12,9.4 40,8 	"/>
	
		<polyline style="fill:none;stroke:#394447;stroke-width:2;stroke-linecap:round;stroke-linejoin:round;stroke-miterlimit:10;" points="
		7.4,31.1 9,36 12,31 	"/>
	
		<polyline style="fill:none;stroke:#394447;stroke-width:2;stroke-linecap:round;stroke-linejoin:round;stroke-miterlimit:10;" points="
		34.7,34 37,40 40,34.2 	"/>
	
		<polyline style="fill:none;stroke:#394447;stroke-width:2;stroke-linecap:round;stroke-linejoin:round;stroke-miterlimit:10;" points="
		12,9.4 12,6 40,4.4 40,48.6 12,47 12,44.6 	"/>
	
		<line style="fill:none;stroke:#394447;stroke-width:2;stroke-linecap:round;stroke-linejoin:round;stroke-miterlimit:10;" x1="12" y1="18.1" x2="12" y2="40.6"/>
	
		<line style="fill:none;stroke:#394447;stroke-width:2;stroke-linecap:round;stroke-linejoin:round;stroke-miterlimit:10;" x1="9" y1="26.5" x2="9" y2="40.8"/>
	
		<rect x="43" y="1" style="fill:none;stroke:#394447;stroke-width:2;stroke-linecap:round;stroke-linejoin:round;stroke-miterlimit:10;" width="3" height="51"/>
</g>
</svg>
