<svg xmlns="http://www.w3.org/2000/svg"><symbol viewBox="0 0 44 33" id="svg-account-address" fill="inherit" stroke="inherit"><path d="M23.088 13.886l-.163.136v7.6l3.184.907 1.861 3.866-5.855-1.883s-9.376 3.125-10.478 3.125C10.536 27.637.96 24.165.96 24.165s-.929-.47-.958-1.667C-.027 21.3.235 2.708.235 1.149c0-1.559 2.02-.997 2.02-.997l9.47 3.026S21.143.118 21.327.067a2.46 2.46 0 0 1 1.135 0c.45.12 9.643 3.11 10.248 3.295.605.185.724 1.08.724 1.08l.155 5.873-2.786.834-.022-3.692-5.196 4.342 2.65 1.314-1.617 2.304-3.53-1.53zM12.75 17.331v6.954l7.994-2.437V14.81l-7.994 2.52zm0-3.25V5.914l7.994-2.354v7.931l-7.994 2.59zm16.39-8.75l-6.216-1.777v6.872L29.14 5.33zM8.528 16.424L3.03 20.118l.03-5.466 5.468 1.773zm-5.451-4.921l.043-7.89L10.57 6v8.06l-7.493-2.557zm7.494 6.84l-5.739 4.178 5.739 1.746v-5.924zm25.085 13.984s-7.845-8.065-7.845-12.558c0-4.494 3.931-7.602 7.845-7.602 3.914 0 7.825 2.55 7.825 7.602 0 5.05-7.825 12.558-7.825 12.558zm-.033-8.573a3.775 3.775 0 1 1 0-7.55 3.775 3.775 0 0 1 0 7.55z" fill="inherit" fill-rule="evenodd" stroke="none"></path></symbol><symbol viewBox="0 0 38 38" id="svg-account-custom" fill="inherit" stroke="inherit"><path d="M21.201 35.25c.053-1.409.074-1.546.392-2.214.742-1.547 2.48-2.543 4.143-2.384 1.102.106 1.738.435 2.818 1.462.986.933 1.325 1.124 1.78 1.007.297-.074 2.681-2.32 2.882-2.723.276-.52.202-.7-.784-1.738-.572-.604-1.07-1.25-1.25-1.62-.265-.552-.297-.71-.297-1.717 0-1.05.022-1.166.35-1.823.424-.868 1.293-1.684 2.14-2.013.456-.18.9-.243 2.035-.286 1.197-.053 1.483-.095 1.642-.254.17-.159.19-.434.222-2.172.043-2.649.138-2.522-1.864-2.585-1.399-.032-1.494-.053-2.151-.371-.848-.424-1.696-1.272-2.088-2.12-.254-.54-.286-.74-.286-1.673 0-1.43.233-1.94 1.537-3.285 1.366-1.409 1.366-1.377-.456-3.2-1.356-1.356-1.42-1.409-1.854-1.409-.413 0-.509.064-1.494.996-1.134 1.07-1.695 1.378-2.808 1.505-1.186.137-2.5-.382-3.4-1.357-.827-.89-1.018-1.483-1.103-3.295-.063-1.44-.063-1.472-.36-1.727C20.661.011 20.607 0 18.754 0 16.9 0 16.847.01 16.56.254c-.296.255-.296.276-.35 1.78-.052 1.441-.073 1.558-.391 2.215-.625 1.25-1.706 2.076-3.052 2.33-.752.138-1.44.064-2.246-.243-.455-.17-.826-.445-1.632-1.208-.974-.932-1.06-.996-1.483-.996-.434 0-.498.053-1.748 1.282-1.325 1.314-1.6 1.706-1.483 2.13.031.138.445.636.91 1.123.499.509.997 1.155 1.198 1.536.318.615.34.72.34 1.77 0 .996-.033 1.176-.298 1.706-.455.932-1.038 1.515-1.95 1.97-.773.382-.826.392-2.33.445-1.515.064-1.536.064-1.79.36-.244.287-.255.34-.255 2.204v1.918l.307.307c.308.308.318.308 1.59.308 1.006 0 1.42.042 1.939.222 1.8.583 2.934 2.268 2.818 4.154-.074 1.133-.403 1.78-1.558 2.987-1.366 1.43-1.377 1.378.445 3.2 1.325 1.325 1.43 1.41 1.812 1.41.371 0 .509-.085 1.356-.912 1.293-1.24 1.992-1.579 3.317-1.579.741.011 1.091.064 1.568.255.847.339 1.78 1.218 2.214 2.098.318.657.34.773.392 2.225.064 1.515.064 1.536.36 1.79.287.244.34.255 2.183.255h1.886l.254-.276c.233-.254.255-.37.318-1.77zm-.943-8.274c2.575-.498 4.779-2.13 5.955-4.397.72-1.399.943-2.32.943-3.931 0-1.61-.223-2.533-.943-3.931-1.494-2.893-4.726-4.726-7.978-4.514-1.23.074-2.088.308-3.243.87-1.727.836-2.956 2.076-3.814 3.813-.689 1.388-.837 2.067-.848 3.762 0 1.695.149 2.352.848 3.761.858 1.738 2.087 2.977 3.814 3.814 1.738.848 3.486 1.092 5.266.753z" fill="inherit" fill-rule="evenodd" stroke="none"></path></symbol><symbol viewBox="0 0 37 33" id="svg-account-dashboard" fill="inherit" stroke="inherit"><path d="M17.015.04c-4.5.396-8.557 2.297-11.691 5.478C4.3 6.558 3.795 7.178 3.05 8.295 1.608 10.467.59 13.105.173 15.75c-.171 1.102-.225 3.375-.117 4.5.31 3.01 1.265 5.803 2.8 8.169l.466.729.334-.054a2.583 2.583 0 0 0 1.932-1.42c.232-.458.256-.59.256-1.18 0-.643-.008-.674-.481-1.667a16.029 16.029 0 0 1-1.203-3.608c-.155-.783-.178-1.117-.178-2.715 0-2.071.108-2.816.667-4.523 1.676-5.143 6.074-8.921 11.435-9.829 4.065-.682 8.13.357 11.435 2.933 2.963 2.312 4.934 5.787 5.438 9.596.132.985.117 2.948-.03 3.91-.241 1.59-.621 2.808-1.413 4.507-.357.76-.38.854-.38 1.436 0 .52.039.69.217 1.055.38.791 1.187 1.396 1.994 1.505l.35.046.472-.76c2.576-4.135 3.422-8.93 2.429-13.793-.24-1.18-.877-2.98-1.467-4.19-2.746-5.593-7.982-9.379-14.158-10.24C19.955.01 17.985-.045 17.015.04zm.714 5.617c-1.04.373-1.521 1.583-1.017 2.591.66 1.327 2.537 1.335 3.235.016.768-1.466-.667-3.158-2.218-2.607zM9.66 10.622c-1.04.373-1.52 1.583-1.016 2.591.66 1.327 2.537 1.335 3.235.016.768-1.466-.667-3.158-2.219-2.607zm17.556 1.28c-1.179.365-4.111 2.56-7.501 5.617-2.072 1.87-3.166 2.995-3.267 3.36-.325 1.14.303 2.272 1.381 2.505.893.194 1.366-.062 2.646-1.428 5.904-6.307 8.852-10.698 6.741-10.054zM7.791 20.568c-1.048.38-1.513 1.567-1.009 2.583.256.504.667.822 1.25.947 1.481.333 2.683-1.242 2-2.623-.41-.822-1.388-1.218-2.241-.907zm19.86 0c-.466.17-.784.45-1.009.9a1.822 1.822 0 0 0 1.25 2.63c1.489.333 2.684-1.242 2-2.623-.41-.822-1.388-1.218-2.241-.907zm-10.388 6.276a4.371 4.371 0 0 0-2.257 1.544c-.916 1.202-1.087 2.886-.427 4.173l.147.295h7.534l.24-.512c.31-.66.38-1.652.179-2.436-.388-1.481-1.575-2.684-3.041-3.064-.543-.14-1.854-.14-2.374 0z" fill="inherit" fill-rule="evenodd" stroke="none"></path></symbol><symbol viewBox="0 0 32 35" id="svg-account-downloads" fill="inherit" stroke="inherit"><path d="M19.958 14.287h5.363c.55 0 .677.31.287.695l-9.342 9.198a1 1 0 0 1-1.405-.017l-9.022-9.165c-.388-.394-.255-.711.293-.711h5.36V1.993c0-.558.45-1.004 1.004-1.004h6.458c.549 0 1.004.45 1.004 1.004v12.294zm6.991 9.581c0 3.61-2.17 6.337-4.483 6.337H8.984c-2.314 0-4.483-2.726-4.483-6.337v-6.38c0-2.553-4.49-2.56-4.49 0v6.38c0 5.729 3.854 10.571 8.973 10.571h13.482c5.119 0 8.973-4.843 8.973-10.57v-6.38c0-2.42-4.49-2.743-4.49 0v6.38z" fill="inherit" fill-rule="evenodd" stroke="none"></path></symbol><symbol viewBox="0 0 35 33" id="svg-account-edit" fill="inherit" stroke="inherit"><path d="M19.408 19.28c.065-.049.13-.1.192-.154L32.654 7.961a4 4 0 1 0-5.2-6.08L14.4 13.047a4.06 4.06 0 0 0-.192.175 3.688 3.688 0 0 0-.34.24l5.54 5.819zm-1.686 1.13c-3.138 1.85-7.926 3.175-8.577 2.415-.665-.777 1.282-5.253 3.345-7.91l5.232 5.495zM29 24.4a4.598 4.598 0 0 1-4.599 4.6H8.6A4.598 4.598 0 0 1 4 24.401V8.6A4.598 4.598 0 0 1 8.599 4H18.4c3.14 0 3.048-4 0-4H8.6A8.598 8.598 0 0 0 0 8.599V24.4C0 29.151 3.85 33 8.599 33H24.4c4.751 0 8.6-3.85 8.6-8.599V15.6c0-2.574-4-2.635-4 0v8.8z" fill="inherit" fill-rule="evenodd" stroke="none"></path></symbol><symbol viewBox="0 0 32 34" id="svg-account-orders" fill="inherit" stroke="inherit"><path d="M21.164 18.123a5.615 5.615 0 0 1-11.01.07 2.196 2.196 0 1 0-2.088.118 7.69 7.69 0 0 0 15.162.058 2.197 2.197 0 1 0-2.064-.246zM3.144 1.68c1.89-2.146 23.185-2.332 25.626 0 2.44 2.333 4.376 27.128 2.44 29.775-1.935 2.647-28.566 2.318-30.507 0-1.94-2.318.551-27.628 2.441-29.775zm2.197 4.454a2.253 2.253 0 0 1 2.265-2.257H24.43a2.256 2.256 0 0 1 2.265 2.257 2.253 2.253 0 0 1-2.265 2.258H7.606A2.256 2.256 0 0 1 5.34 6.134z" fill="inherit" fill-rule="evenodd" stroke="none"></path></symbol><symbol viewBox="0 0 37 38" id="svg-account-payment" fill="inherit" stroke="inherit"><path d="M11.668 37.296l-.447-.163a4.405 4.405 0 0 1-2.816-3.235c-.16-.76-.16-12.46 0-13.219.365-1.738 1.867-3.162 3.574-3.396.24-.029 5.178-.05 10.976-.043l10.538.007.474.16a4.98 4.98 0 0 1 1.83 1.154c.533.526 1.037 1.498 1.16 2.228.018.115.033.449.043 1.02v10.346l-.006 1.743-.182.511c-.372 1.074-1.24 2.045-2.247 2.527-.402.194-.542.302-1.487.36h-21.41zm23.029-6.89c0 2.988-.008 3.141-.153 3.455-.197.438-.54.782-.978.993l-.364.176H22.663c-10.042 0-10.553-.008-10.83-.139a2.127 2.127 0 0 1-.97-.876l-.197-.336-.022-3.199-.021-3.191h24.074v3.118zM22.918.079C20.614.618 2.943 4.985 2.724 5.073 1.032 5.73-.127 7.556.011 9.323c.044.628 2.8 11.999 3.049 12.59.218.52.722 1.22 1.13 1.57.3.256 1.094.738 1.21.738.023 0 .052-.876.074-1.95.036-2.03.065-2.264.437-3.279.7-1.913 2.407-3.564 4.361-4.228 1.19-.41.985-.402 11.086-.402 6.367 0 9.328-.022 9.328-.073 0-.044-.62-2.622-1.386-5.733-.985-4.03-1.444-5.791-1.597-6.12C27.22 1.43 26.23.545 25.179.202c-.641-.212-1.648-.263-2.26-.124zM10.63 22.98h24.067V22c0-.927-.008-.993-.205-1.365-.226-.439-.736-.877-1.181-1.008-.197-.059-3.158-.08-10.699-.08H12.183l-.46.226a2.065 2.065 0 0 0-.998 1.11c-.044.131-.088.65-.088 1.161l-.007.935zM25.938 8.447c.292 1.183.554 2.256.59 2.388l.059.234-2.414.584c-1.32.328-2.421.577-2.443.562-.044-.051-1.204-4.798-1.174-4.82.08-.066 4.776-1.183 4.813-1.146.03.021.284 1.015.569 2.198z" fill="inherit" fill-rule="evenodd" stroke="none"></path></symbol><symbol viewBox="0 0 1792 1792" id="svg-angle-down" fill="inherit" stroke="inherit"><path d="M1395 736q0 13-10 23l-466 466q-10 10-23 10t-23-10L407 759q-10-10-10-23t10-23l50-50q10-10 23-10t23 10l393 393 393-393q10-10 23-10t23 10l50 50q10 10 10 23z" stroke="none"></path></symbol><symbol viewBox="0 0 216 348" id="svg-angle-left" fill="inherit" stroke="inherit"><path d="M144.826 335.255a40.815 40.815 0 1 0 57.965-57.446L98.706 174 201.38 70.708a40.815 40.815 0 1 0-57.418-57.965L11.947 144.699c-15.93 15.938-15.93 41.769 0 57.706l132.879 132.85z" fill="inherit" fill-rule="evenodd" stroke="none"></path></symbol><symbol viewBox="0 0 216 348" id="svg-angle-right" fill="inherit" stroke="inherit"><path d="M70.445 335.255a40.815 40.815 0 1 1-57.966-57.446L116.564 174 13.892 70.708a40.815 40.815 0 1 1 57.417-57.965l132.015 131.956c15.929 15.938 15.929 41.769 0 57.706l-132.88 132.85z" fill="inherit" fill-rule="evenodd" stroke="none"></path></symbol><symbol viewBox="0 0 1792 1792" id="svg-angle-up" fill="inherit" stroke="inherit"><path d="M1395 1184q0 13-10 23l-50 50q-10 10-23 10t-23-10L896 864l-393 393q-10 10-23 10t-23-10l-50-50q-10-10-10-23t10-23l466-466q10-10 23-10t23 10l466 466q10 10 10 23z" stroke="none"></path></symbol><symbol viewBox="0 0 231 385" id="svg-arrow-left" fill="inherit" stroke="inherit"><path d="M11.53 219.998l151.265 152.604c9.842 10.35 24.457 14.53 38.22 10.936 13.763-3.595 24.528-14.406 28.152-28.272 3.624-13.866-.46-28.624-10.677-38.595L94.341 190.603 217.123 68.716c10.26-9.925 14.406-24.666 10.842-38.548C224.4 16.287 213.68 5.43 199.934 1.774c-13.748-3.655-28.38.463-38.266 10.769L11.511 163.955c-15.319 15.487-15.319 40.574.018 56.043z" fill="inherit" fill-rule="evenodd" stroke="none"></path></symbol><symbol viewBox="0 0 18 15" id="svg-bars" fill="inherit" stroke="inherit"><path d="M0 13.5c0-.828.662-1.5 1.504-1.5h14.992c.83 0 1.504.666 1.504 1.5 0 .828-.662 1.5-1.504 1.5H1.504C.674 15 0 14.334 0 13.5zm0-6C0 6.672.662 6 1.504 6h14.992C17.326 6 18 6.666 18 7.5c0 .828-.662 1.5-1.504 1.5H1.504C.674 9 0 8.334 0 7.5zm0-6C0 .672.662 0 1.504 0h14.992C17.326 0 18 .666 18 1.5c0 .828-.662 1.5-1.504 1.5H1.504C.674 3 0 2.334 0 1.5z" fill="inherit" fill-rule="evenodd" stroke="none"></path></symbol><symbol viewBox="0 0 13 19" id="svg-calc" fill="inherit" stroke="inherit"><path d="M11.883 0H1.089C.487 0 0 .487 0 1.088V17.59c0 .6.487 1.089 1.089 1.089h10.794c.6 0 1.087-.488 1.087-1.064V1.113C12.97.487 12.483 0 11.883 0zM4.176 17.073h-2.37v-2.368h2.37v2.368zm0-3.482h-2.37v-2.369h2.37v2.369zm3.563 3.482h-2.37v-2.368h2.37v2.368zm0-3.482h-2.37v-2.369h2.37v2.369zm3.514 3.482h-2.37v-2.368h2.37v2.368zm0-3.482h-2.37v-2.369h2.37v2.369zm-7.077-3.558h-2.37V7.665h2.37v2.368zm3.563 0h-2.37V7.665h2.37v2.368zm3.514 0h-2.37V7.665h2.37v2.368zm0-4.427H1.807V1.742h9.446v3.864z" fill="inherit" fill-rule="evenodd" stroke="none"></path></symbol><symbol viewBox="0 0 24 22" id="svg-cart" fill="inherit" stroke="inherit"><path d="M9 7H1.501C.667 7 0 7.672 0 8.5v2c0 .826.672 1.5 1.501 1.5H2v7.506A2.5 2.5 0 0 0 4.493 22h15.014A2.495 2.495 0 0 0 22 19.506V12h.499c.834 0 1.501-.672 1.501-1.5v-2c0-.826-.672-1.5-1.501-1.5H15v1.002A2 2 0 0 1 13.002 10h-2.004A2 2 0 0 1 9 8.002V7zm-4 6.003A.999.999 0 0 1 6 12c.552 0 1 .438 1 1.003v4.994A.999.999 0 0 1 6 19c-.552 0-1-.438-1-1.003v-4.994zm4 0A.999.999 0 0 1 10 12c.552 0 1 .438 1 1.003v4.994A.999.999 0 0 1 10 19c-.552 0-1-.438-1-1.003v-4.994zm4 0A.999.999 0 0 1 14 12c.552 0 1 .438 1 1.003v4.994A.999.999 0 0 1 14 19c-.552 0-1-.438-1-1.003v-4.994zm4 0A.999.999 0 0 1 18 12c.552 0 1 .438 1 1.003v4.994A.999.999 0 0 1 18 19c-.552 0-1-.438-1-1.003v-4.994zM10 .998A.998.998 0 0 1 11.01 0h1.98c.558 0 1.01.446 1.01.998v7.004A.998.998 0 0 1 12.99 9h-1.98C10.451 9 10 8.554 10 8.002V.998z" fill="inherit" fill-rule="evenodd" stroke="none"></path></symbol><symbol viewBox="0 0 29 21" id="svg-check-light" fill="inherit" stroke="inherit"><path d="M10.385 15.512L4.059 9.187a2.034 2.034 0 0 0-2.867.005 2.022 2.022 0 0 0-.005 2.867l7.745 7.746a2.034 2.034 0 0 0 2.863-.002c.097-.068.19-.145.276-.232l15.5-15.5a2.03 2.03 0 1 0-2.873-2.873L10.385 15.513z" fill="inherit" fill-rule="evenodd" stroke="none"></path></symbol><symbol viewBox="0 0 1792 1792" id="svg-check" fill="inherit" stroke="inherit"><path d="M1671 566q0 40-28 68l-724 724-136 136q-28 28-68 28t-68-28l-136-136-362-362q-28-28-28-68t28-68l136-136q28-28 68-28t68 28l294 295 656-657q28-28 68-28t68 28l136 136q28 28 28 68z" stroke="none"></path></symbol><symbol viewBox="0 0 12 13" id="svg-close-light" fill="inherit" stroke="inherit"><path d="M6.22 4.751L2.578 1.11a1.179 1.179 0 0 0-1.661-.004 1.17 1.17 0 0 0 .003 1.66L4.563 6.41.92 10.05a1.179 1.179 0 0 0-.003 1.66 1.17 1.17 0 0 0 1.66-.003L6.22 8.066l3.642 3.642c.459.457 1.2.46 1.661.004a1.172 1.172 0 0 0-.003-1.661L7.877 6.409l3.643-3.643a1.18 1.18 0 0 0 .003-1.66 1.172 1.172 0 0 0-1.66.003L6.22 4.75v.001z" fill="inherit" fill-rule="evenodd" stroke="none"></path></symbol><symbol viewBox="0 0 13 13" id="svg-close" fill="inherit" stroke="inherit"><path d="M2.19.326A1.671 1.671 0 0 0 .568 3.122L4.21 6.763v-.708L.568 9.696a1.671 1.671 0 1 0 2.366 2.362l3.64-3.638h-.707l3.642 3.642a1.68 1.68 0 0 0 2.366.006 1.674 1.674 0 0 0-.002-2.372l-3.641-3.64v.707l3.643-3.643A1.68 1.68 0 0 0 11.88.755a1.674 1.674 0 0 0-2.37.002l-3.642 3.64h.706L2.931.756a1.674 1.674 0 0 0-.74-.431z" stroke="none"></path></symbol><symbol viewBox="0 0 1792 1792" id="svg-comment" fill="inherit" stroke="inherit"><path d="M1792 896q0 174-120 321.5t-326 233-450 85.5q-70 0-145-8-198 175-460 242-49 14-114 22-17 2-30.5-9t-17.5-29v-1q-3-4-.5-12t2-10 4.5-9.5l6-9 7-8.5 8-9q7-8 31-34.5t34.5-38 31-39.5 32.5-51 27-59 26-76q-157-89-247.5-220T0 896q0-130 71-248.5T262 443t286-136.5T896 256q244 0 450 85.5t326 233T1792 896z" stroke="none"></path></symbol><symbol viewBox="0 0 21 21" id="svg-coupon" fill="inherit" stroke="inherit"><path d="M4.225 20.385c-.488-.136-.853-.427-1.042-.83-.07-.155-.086-.266-.086-.643 0-.451 0-.455.172-.8.234-.472.57-.829 1.096-1.17 1.234-.803 3.478-2.354 3.462-2.399-.025-.066-2.753-1.94-3.626-2.486-.34-.217-.722-.656-.927-1.062-.177-.357-.177-.361-.177-.812 0-.415.008-.476.115-.686.644-1.312 2.92-1.058 3.922.44.566.844.488 1.8-.19 2.292-.093.066-.171.136-.171.152-.004.033 2.104 1.305 2.207 1.333.078.021.246-.135.746-.689l.357-.39 1.407-.844c1.842-1.1 2.211-1.284 3.126-1.535.52-.143 1.358-.18 1.813-.078.357.078.525.197.484.345-.016.066-.906.62-3.277 2.043-1.793 1.075-3.258 1.965-3.258 1.981 0 .017 1.465.907 3.258 1.982 2.37 1.423 3.26 1.977 3.277 2.042.062.238-.43.407-1.202.407-.5 0-.886-.066-1.477-.255-.627-.2-1.165-.476-2.699-1.395l-1.452-.87-.373-.41c-.513-.561-.652-.689-.73-.668-.037.012-.55.308-1.14.66-.948.57-1.166.722-1.035.722.095 0 .448.382.558.603.164.333.19.792.066 1.194-.168.558-.652 1.14-1.235 1.485-.603.361-1.394.496-1.969.34zm1.087-.895c.636-.168 1.132-.668 1.198-1.206.029-.266-.04-.46-.234-.636-.537-.484-1.62-.16-2.08.624-.135.226-.176.636-.082.812.144.275.464.46.809.464.082.004.254-.025.39-.058zm.648-7.86c.206-.057.464-.29.526-.475.065-.205.02-.509-.111-.755-.406-.747-1.53-1.1-2.051-.644-.222.193-.275.332-.25.632.061.8 1.078 1.468 1.886 1.243zm-3.909 3.512c-.353-.078-.902-.353-1.058-.533a.653.653 0 0 1 .496-1.087c.082 0 .267.07.464.172l.324.176.787.02c.858.021.895.034 1.096.304.119.16.119.546 0 .706-.201.275-.238.283-1.075.291-.542.004-.845-.008-1.034-.049zm12.266-.012c-.247-.136-.415-.476-.353-.718a.807.807 0 0 1 .353-.447c.13-.07.237-.074 1.443-.066 1.24.012 1.305.016 1.412.099.217.16.283.29.283.55 0 .258-.066.389-.283.549-.107.082-.173.086-1.412.098-1.206.009-1.312.004-1.443-.065zm4.84-.259a.673.673 0 0 1-.41-.611c0-.226.082-.373.316-.558.381-.3.545-.566.623-1 .054-.32.136-.444.374-.563.221-.115.336-.115.562-.012.324.148.426.443.328.952a2.573 2.573 0 0 1-.726 1.345c-.44.44-.755.57-1.067.447zM.077 12.123C.009 11.979 0 11.873 0 10.872 0 9.78 0 9.776.103 9.604a.643.643 0 0 1 1.115.02c.09.173.095.214.095 1.248 0 .955-.009 1.087-.078 1.239a.645.645 0 0 1-.722.344.63.63 0 0 1-.435-.332zm19.941-1.481a1.208 1.208 0 0 1-.221-.21c-.082-.11-.086-.163-.086-1.296V7.955l.11-.144a.65.65 0 0 1 1.1.09c.082.16.086.222.074 1.293-.012 1.062-.017 1.128-.099 1.239a.671.671 0 0 1-.55.3.57.57 0 0 1-.328-.091zM.513 7.942a.63.63 0 0 1-.435-.332C.008 7.467 0 7.36 0 6.36c0-1.092 0-1.096.103-1.268a.643.643 0 0 1 1.115.02c.09.173.095.214.095 1.264 0 1.042-.004 1.09-.09 1.247a.647.647 0 0 1-.71.32zM20.018 6.13a1.208 1.208 0 0 1-.221-.21c-.082-.11-.086-.164-.086-1.296V3.443l.11-.144a.65.65 0 0 1 1.1.09c.082.16.086.222.074 1.293-.012 1.062-.017 1.128-.099 1.238a.671.671 0 0 1-.55.3.57.57 0 0 1-.328-.09zM.39 3.66C.127 3.541 0 3.311 0 2.967c.004-.583.304-1.272.767-1.74.164-.168.361-.328.439-.36.455-.193.927.098.927.566 0 .25-.066.369-.34.627-.296.275-.435.55-.48.948-.033.324-.099.451-.296.599-.14.102-.463.131-.627.053zm18.582-1.756c-.237-.127-.266-.13-.923-.151-.553-.02-.697-.037-.8-.099-.221-.135-.287-.267-.287-.562 0-.32.078-.447.34-.578.165-.082.226-.086.883-.07.599.016.746.033.984.115.37.127.681.316.796.488.193.287.086.722-.217.894-.23.132-.472.12-.776-.037zM3.753 1.666c-.254-.127-.328-.258-.328-.574 0-.316.078-.447.333-.574C3.909.44 4.004.436 5 .436c1.214 0 1.3.016 1.485.312.196.32.077.75-.255.918-.143.074-.242.082-1.235.082-1 0-1.09-.004-1.243-.082zm4.513 0c-.254-.127-.328-.258-.328-.574 0-.316.078-.447.332-.574.152-.078.246-.082 1.243-.082.989 0 1.087.008 1.23.082a.648.648 0 0 1 0 1.148c-.143.074-.241.082-1.234.082-1.001 0-1.091-.004-1.243-.082zm4.512 0c-.254-.127-.328-.258-.328-.574 0-.316.078-.447.332-.574.152-.078.246-.082 1.243-.082.989 0 1.087.008 1.23.082a.648.648 0 0 1 0 1.148c-.143.074-.241.082-1.234.082-1 0-1.091-.004-1.243-.082z" fill="inherit" fill-rule="evenodd" stroke="none"></path></symbol><symbol viewBox="0 0 1792 1792" id="svg-dribbble" fill="inherit" stroke="inherit"><path d="M1152 1500q-42-241-140-498h-2l-2 1q-16 6-43 16.5t-101 49-137 82T596 1265t-103 148l-15-11q184 150 418 150 132 0 256-52zM967 893q-21-49-53-111-311 93-673 93-1 7-1 21 0 124 44 236.5T408 1334q50-89 123.5-166.5T674 1043t130.5-81 99.5-48l37-13q4-1 13-3.5t13-4.5zM860 681Q740 468 616 303q-138 65-234 186T254 761q302 0 606-80zm684 319q-210-60-409-29 87 239 128 469 111-75 185-189.5t96-250.5zM739 259q-1 0-2 1 1-1 2-1zm590 145q-185-164-433-164-76 0-155 19 131 170 246 382 69-26 130-60.5t96.5-61.5 65.5-57 37.5-40.5zm223 485q-3-232-149-410l-1 1q-9 12-19 24.5t-43.5 44.5-71 60.5-100 65T1037 739q25 53 44 95 2 6 6.5 17.5t7.5 16.5q36-5 74.5-7t73.5-2 69 1.5 64 4 56.5 5.5 48 6.5 36.5 6 25 4.5zm112 7q0 209-103 385.5T1281.5 1561 896 1664t-385.5-103T231 1281.5 128 896t103-385.5T510.5 231 896 128t385.5 103T1561 510.5 1664 896z" stroke="none"></path></symbol><symbol viewBox="0 0 1792 1792" id="svg-facebook" fill="inherit" stroke="inherit"><path d="M1343 12v264h-157q-86 0-116 36t-30 108v189h293l-39 296h-254v759H734V905H479V609h255V391q0-186 104-288.5T1115 0q147 0 228 12z" stroke="none"></path></symbol><symbol viewBox="0 0 1792 1792" id="svg-flickr" fill="inherit" stroke="inherit"><path d="M1376 128q119 0 203.5 84.5T1664 416v960q0 119-84.5 203.5T1376 1664H416q-119 0-203.5-84.5T128 1376V416q0-119 84.5-203.5T416 128h960zM826 896q0-88-62-150t-150-62-150 62-62 150 62 150 150 62 150-62 62-150zm564 0q0-88-62-150t-150-62-150 62-62 150 62 150 150 62 150-62 62-150z" stroke="none"></path></symbol><symbol viewBox="0 0 1792 1792" id="svg-github" fill="inherit" stroke="inherit"><path d="M896 128q209 0 385.5 103T1561 510.5 1664 896q0 251-146.5 451.5T1139 1625q-27 5-40-7t-13-30q0-3 .5-76.5t.5-134.5q0-97-52-142 57-6 102.5-18t94-39 81-66.5 53-105T1386 856q0-119-79-206 37-91-8-204-28-9-81 11t-92 44l-38 24q-93-26-192-26t-192 26q-16-11-42.5-27T578 459.5 493 446q-45 113-8 204-79 87-79 206 0 85 20.5 150t52.5 105 80.5 67 94 39 102.5 18q-39 36-49 103-21 10-45 15t-57 5-65.5-21.5T484 1274q-19-32-48.5-52t-49.5-24l-20-3q-21 0-29 4.5t-5 11.5 9 14 13 12l7 5q22 10 43.5 38t31.5 51l10 23q13 38 44 61.5t67 30 69.5 7 55.5-3.5l23-4q0 38 .5 88.5t.5 54.5q0 18-13 30t-40 7q-232-77-378.5-277.5T128 896q0-209 103-385.5T510.5 231 896 128zM419 1231q3-7-7-12-10-3-13 2-3 7 7 12 9 6 13-2zm31 34q7-5-2-16-10-9-16-3-7 5 2 16 10 10 16 3zm30 45q9-7 0-19-8-13-17-6-9 5 0 18t17 7zm42 42q8-8-4-19-12-12-20-3-9 8 4 19 12 12 20 3zm57 25q3-11-13-16-15-4-19 7t13 15q15 6 19-6zm63 5q0-13-17-11-16 0-16 11 0 13 17 11 16 0 16-11zm58-10q-2-11-18-9-16 3-14 15t18 8 14-14z" stroke="none"></path></symbol><symbol viewBox="0 0 1792 1792" id="svg-google-plus" fill="inherit" stroke="inherit"><path d="M1181 913q0 208-87 370.5t-248 254-369 91.5q-149 0-285-58t-234-156-156-234-58-285 58-285 156-234 234-156 285-58q286 0 491 192L769 546Q652 433 477 433q-123 0-227.5 62T84 663.5 23 896t61 232.5T249.5 1297t227.5 62q83 0 152.5-23t114.5-57.5 78.5-78.5 49-83 21.5-74H477V791h692q12 63 12 122zm867-122v210h-209v209h-210v-209h-209V791h209V582h210v209h209z" stroke="none"></path></symbol><symbol viewBox="0 0 220 205" id="svg-icon-1" fill="inherit" stroke="inherit"><path d="M164.68 88.626c-.026 36.893-29.941 66.793-66.84 66.793-36.915 0-66.84-29.925-66.84-66.84C31 51.665 57.665 25 94.58 25c7.953 0 2.865 62.242 3.934 66.84.838 3.609 41.123-3.897 58.415-4.592.281-6.031 1.925-29.994 10.446-38.173 9.78-9.386 27.073-4.336 29.368-2.735 2.295 1.6 1.972 8.993-4.047 10.51-6.02 1.517-10.167-10.34-18.164-2.696-7.96 7.608-8.488 29.196-9.853 34.472zM98.233 146.65c36.95 0 56.664-32.11 56.664-48.364 0-4.887-59.602 9.105-64.17 3.865-4.567-5.24 2.432-60.89-2.442-66.582-28.35 0-47.729 27.368-47.729 52.596 0 25.228 20.725 58.485 57.677 58.485zm-24.726 43.323c9.503 0 17.206-7.703 17.206-17.206 0-9.502-7.703-17.205-17.206-17.205-9.502 0-17.205 7.703-17.205 17.205 0 9.503 7.703 17.206 17.205 17.206zm0-8.097a9.109 9.109 0 1 0 0-18.218 9.109 9.109 0 0 0 0 18.218zm51.618 8.097c9.502 0 17.206-7.703 17.206-17.206 0-9.502-7.704-17.205-17.206-17.205-9.503 0-17.206 7.703-17.206 17.205 0 9.503 7.703 17.206 17.206 17.206zm0-8.097a9.109 9.109 0 1 0 0-18.218 9.109 9.109 0 0 0 0 18.218z" fill="inherit" fill-rule="evenodd" stroke="none"></path></symbol><symbol viewBox="0 0 222 205" id="svg-icon-10" fill="inherit" stroke="inherit"><path d="M143.093 98.883c1.334.181 2.696.275 4.08.275a29.9 29.9 0 0 0 14.928-3.966l.073-.074.028.015c8.98-5.2 15.023-14.915 15.023-26.044 0-16.606-13.455-30.068-30.052-30.068s-30.051 13.462-30.051 30.068c0 2.9.41 5.705 1.176 8.358l16.123-4.672.337-.109a11.648 11.648 0 0 1-.106-1.572c0-6.366 5.157-11.527 11.52-11.527 6.362 0 11.52 5.161 11.52 11.527 0 5.915-4.454 10.79-10.19 11.45l-.686 2.543-3.723 13.796zm-4.218-18.976l-25.803 8.27a38.933 38.933 0 0 1-4.966-19.087c0-21.59 17.491-39.09 39.067-39.09s39.067 17.5 39.067 39.09c0 12.945-6.29 24.42-15.978 31.534l-2.87 2.419-78.52 78.093c-4.494 5.048-11.041 8.228-18.33 8.228C56.988 189.364 46 178.37 46 164.808c0-13.562 10.988-24.556 24.542-24.556 12.698 0 23.143 9.648 24.413 22.018l54.195-54.14a39.69 39.69 0 0 1-1.977.048 38.93 38.93 0 0 1-14.947-2.963l.078-.275 1-4.384 4.808-17.82.763-2.829zM80.96 55.505s.823-3.47-3.584-4.428c-4.406-.958-5.23 2.53-5.23 2.53l-17.029 79.18-.948 4.41 9.762-2.511 17.03-79.181zm5.11 109.303c0-8.58-6.952-15.536-15.527-15.536s-15.527 6.956-15.527 15.536c0 8.58 6.952 15.535 15.527 15.535s15.527-6.955 15.527-15.535z" fill="inherit" fill-rule="evenodd" stroke="none"></path></symbol><symbol viewBox="0 0 220 205" id="svg-icon-11" fill="inherit" stroke="inherit"><path d="M123.445 180.287l-.033-.12c.274-.074.755-.395 1.366-1.036.793-.831 1.648-2.048 2.514-3.608 1.867-3.363 3.656-8.084 5.169-13.724 2.647-9.872 4.25-21.687 4.494-33.882-15.888 4.156-33.199 5.278-51.076 3.575-21.563-2.054-41.632-8.26-52.777-15.704 4.886 37.246 36.479 66.01 74.773 66.184a75.588 75.588 0 0 0 15.57-1.685zm11.578-3.49c5.59-11.54 9.337-30.883 9.467-51.116 14.55-4.849 27.71-12.434 38.758-22.931.037.982.056 1.968.056 2.96 0 32.36-20.026 60.008-48.28 71.086zm47.317-83.285l-.269-.248c-10.41 11.219-23.258 19.33-37.716 24.506-1.56-37.919-15.202-69.835-42.034-88.096a76.306 76.306 0 0 1 5.554-.227c37.565.171 68.681 27.853 74.465 64.065zm-74.115-72.51V21h-.7v.003c-45.539.372-82.456 37.09-83.502 82.716H24c0 .15.005.3.014.451a78.85 78.85 0 0 0-.014 1.54c0 46.543 37.326 84.328 83.525 84.706v.003h.7v-.003c46.2-.378 83.525-38.163 83.525-84.707 0-46.543-37.326-84.328-83.525-84.706zM32.447 105.52c.54.679 1.292 1.422 2.244 2.203 2.653 2.177 6.629 4.455 11.574 6.593 10.896 4.709 25.288 8.27 40.326 9.703 17.742 1.69 34.826.46 50.333-3.883-.018-.641-.04-1.283-.066-1.924-1.58-39.17-16.612-71.083-46.069-86.736-33.384 7.911-58.255 38.043-58.342 74.044zm15.996-9.81c.055-.937.155-1.988.312-3.124.446-3.238 1.248-6.468 2.477-9.442.84-2.03 1.852-3.867 3.044-5.47a3.754 3.754 0 1 0-6.024-4.48c-1.582 2.127-2.892 4.504-3.958 7.082-1.497 3.62-2.449 7.456-2.977 11.285a47.996 47.996 0 0 0-.369 3.706c-.041.694-.055 1.21-.055 1.517a3.754 3.754 0 1 0 7.508 0c0-.164.01-.533.042-1.075z" fill="inherit" fill-rule="evenodd" stroke="none"></path></symbol><symbol viewBox="0 0 220 205" id="svg-icon-12" fill="inherit" stroke="inherit"><path d="M48.102 31.528a794.764 794.764 0 0 1 18.057-1.724c16.75-1.411 33.416-2.32 49.028-2.484 29.037-.307 48.972 1.051 62.764 6.882 0 0 1.745-.14 3.754-.388-.265.033 5.71-.743 7.184-.89 2.855-.288 5.063-.323 7.27.009 6.059.91 10.303 4.453 13.366 10.51a19.485 19.485 0 0 1 2.033 7.266c.46 5.698-1.36 11.096-4.512 16.247-.915 1.494-1.263 7.057-1.064 10.03.752 11.226 1.099 22.652.813 33.382-.378 14.178-4.03 30.327-4.03 30.327.429 1.227.176.733.701 1.934.785 1.796 3.465 7.153 3.661 7.575 1.742 3.75 2.56 6.746 2.253 10.307-.326 3.774-1.974 7.13-4.772 10.287-3.503 3.955-7.686 6.144-12.725 6.863-3.221.46-4.63.413-12.183-.092-4.538-.303-5.812-.42-9.493-.316 0 0-29.397 7.79-49.582 8.005-16.939.182-34.97-1.379-52.926-4.088a391.13 391.13 0 0 1-16.367-2.817c-1.736-.338-2.377-.434-3.713-.718-.817-.174-2.896.874-4.733 1.372-3.39.92-6.744 1.622-9.976 2.017-7.538.922-13.819.222-18.759-3.39-3.786-2.767-5.743-6.848-6.092-11.428-.24-3.135.262-6.39 1.31-9.849.77-2.543 1.824-5.14 3.092-7.768.889-1.844 2.369-4.057 2.315-4.443-.15-1.093-.062-.517-.243-1.92a532.925 532.925 0 0 1-1.508-12.997c-.902-8.69-1.576-17.227-1.931-25.26-.683-15.46 1.78-33.648 1.78-33.648-.22-5.856-.805-10.779-1.75-15.9.131.709-1.764-8.68-1.996-10.891-.513-4.895.341-9.009 3.325-12.713 2.961-3.677 7.111-4.949 11.735-4.806 2.756.084 5.708.689 8.94 1.693 1.87.58 3.798 1.288 5.766 2.094a96.279 96.279 0 0 1 5.311 2.371c.803 0 1.976-.434 3.897-.64zm-28.64 4.934c-4.108 5.101 1.586 11.729 2.405 33.52-5.681 21.793 2.266 76.077 2.266 76.077s-12.218 18.792-4.67 24.31c7.547 5.518 27.546-2.1 27.546-2.1s78.957 18.009 121.153 0c16.518-.465 23.634 3.42 29.71-3.439 6.076-6.859.01-10.416-4.327-22.854 7.948-23.674 2.568-75.307 2.568-75.307s9.765-10.494 5.38-19.166c-4.385-8.671-9.146-5.412-24.697-4.13-34.491-14.58-134.55-2.121-134.55-2.121s-18.675-9.891-22.783-4.79zm12.833 40.167c-.26 1.548-.52 3.334-.76 5.34-2.045 17.04-1.548 36.44 3.28 56.177a4.5 4.5 0 0 0 8.743-2.139c-4.543-18.567-5.013-36.918-3.087-52.965.223-1.863.462-3.51.7-4.922a61.423 61.423 0 0 1 .297-1.635 4.5 4.5 0 1 0-8.808-1.851 54.32 54.32 0 0 0-.365 1.995z" fill="inherit" fill-rule="evenodd" stroke="none"></path></symbol><symbol viewBox="0 0 220 205" id="svg-icon-13" fill="inherit" stroke="inherit"><g fill="inherit" fill-rule="evenodd" stroke="none"><path d="M0 0h220v205H0z" fill="none"></path><path d="M48.436 140.398c8.217-16.848 30.068-23.441 48.934-14.239 18.866 9.201 27.124 30.479 18.906 47.327-8.217 16.848-30.068 23.441-48.934 14.239-18.866-9.201-27.123-30.479-18.906-47.327zm41.14-33.145l27.133 13.234c1.882-1.175 3.282-2.919 4.279-4.961 2.88-5.906-.482-15.06 3.984-24.217 4.346-8.912 28.233-5.926 36.938-23.772 6.396-13.111 7.802-35.128-13.723-46.021-21.837-10.256-38.32 4.407-44.714 17.519-8.704 17.847 8.355 34.832 4.009 43.743-4.466 9.157-13.75 12.144-16.631 18.049-.996 2.043-1.507 4.22-1.275 6.426zm33.945-79.777a22.304 22.304 0 0 0-3.935 1.491c-5.251 2.577-9.206 6.952-10.69 13.421a3.5 3.5 0 0 0 6.823 1.564c.97-4.229 3.467-6.991 6.95-8.7a15.37 15.37 0 0 1 2.699-1.024c.487-.133.819-.2.942-.217a3.5 3.5 0 0 0-.974-6.932c-.405.057-1.026.181-1.815.397zm-10.265 100.265c13.992 13.041 19.049 32.968 10.857 49.765-10.272 21.06-37.245 28.736-60.126 17.577-22.88-11.16-33.438-37.141-23.167-58.201 8.119-16.646 26.672-24.931 45.391-22.161-.305-.373-.59-.749-.856-1.129L45.017 93.918a3.772 3.772 0 0 1-1.729-5.042 3.776 3.776 0 0 1 5.038-1.742l34.442 16.798c.209-1.736.755-3.526 1.652-5.367 4.888-10.021 11.992-10.353 15.472-17.486 3.011-6.174-13.457-26.241-3.32-47.026 7.399-15.173 29.786-32.588 55.078-21.098l.008-.015c.192.093.383.188.573.284.192.09.385.183.577.277l-.008.015c24.626 12.857 24.686 41.219 17.285 56.392-10.138 20.784-36.09 20.161-39.101 26.335-3.479 7.134.633 12.937-4.254 22.958-.898 1.841-1.973 3.373-3.212 4.606l38.646 18.849a3.772 3.772 0 0 1 1.729 5.042 3.776 3.776 0 0 1-5.038 1.742l-44.541-21.724a19.44 19.44 0 0 1-1.058.025z" fill="inherit"></path></g></symbol><symbol viewBox="0 0 220 205" id="svg-icon-14" fill="inherit" stroke="inherit"><path d="M51.37 150.582C31.76 146.882 17 127.504 17 104.39c0-25.728 18.287-46.827 41.196-46.827 22.908 0 41.195 21.1 41.195 46.827 0 25.179-17.515 45.925-39.735 46.799-.344 1.633-.535 3.433-.535 5.4 0 2.806 1.44 5.37 5.34 10.319l.538.68c5.084 6.43 5.005 9.486 5.005 13.739 0 .424-.022.851-.067 1.282-.415 4.003-.817 8.14-4.291 12.259a49.835 49.835 0 0 1-4.144 4.336 37.894 37.894 0 0 1-1.954 1.715c-1.48 1.187-4.108 1.34-5.87.343-1.76-.997-1.989-2.768-.509-3.956.06-.048.198-.162.402-.337a43.928 43.928 0 0 0 4.832-4.876c2.91-3.453 2.908-6.846 3.223-9.876.03-.302.047-.599.047-.89 0-3 .405-5.492-4.027-11.097l-.543-.688c-4.523-5.738-6.313-8.929-6.313-12.952 0-2.16.205-4.164.58-6.01zm96.467-11.6c-27.384-2.601-48.446-32.68-48.446-68.9C99.391 32.179 122.457 1 151.696 1 180.934 1 204 32.179 204 70.082c0 35.808-20.586 65.614-47.515 68.8.141.356.28.73.415 1.12 1.158 3.347 1.848 7.326 1.848 11.933 0 2.843-1.122 5.35-3.247 7.72-1.528 1.705-3.024 2.902-6.37 5.31l-.126.091c-5.762 4.148-7.493 6.081-7.493 9.398 0 2.34 1.577 4.037 6.189 7.15l1.384.928c4.569 3.07 6.821 4.963 8.461 7.691 2.186 3.636 2.118 7.714-.45 12.494-.784 1.458-3.173 2.212-5.336 1.684-2.163-.528-3.282-2.139-2.498-3.596 1.896-3.528 1.94-6.182.562-8.473-1.094-1.82-2.807-3.26-6.62-5.822.008.005-1.085-.727-1.398-.939-6.059-4.088-8.625-6.85-8.625-11.117 0-2.898 1.137-5.45 3.292-7.856 1.55-1.73 3.05-2.932 6.45-5.38l.127-.09c5.663-4.077 7.366-5.977 7.366-9.193 0-4.174-.615-7.726-1.63-10.657a19.71 19.71 0 0 0-.949-2.297zm-39.188-68.9c0-33.282 19.624-59.81 43.047-59.81 23.422 0 43.047 26.528 43.047 59.81 0 33.281-19.625 59.809-43.047 59.809-23.423 0-43.047-26.528-43.047-59.81zM26.257 104.39c0-20.875 14.457-37.555 31.939-37.555s31.938 16.68 31.938 37.555-14.456 37.554-31.938 37.554-31.939-16.679-31.939-37.554zm101.785-70.404a47.998 47.998 0 0 0-4.108 5.907c-3.759 6.362-6.028 13.378-6.028 20.86a3.706 3.706 0 0 0 3.703 3.709 3.706 3.706 0 0 0 3.703-3.71c0-6.016 1.865-11.782 4.996-17.081a40.62 40.62 0 0 1 3.47-4.992 30.2 30.2 0 0 1 1.11-1.292c.186-.202.307-.327.352-.372a3.713 3.713 0 0 0 .022-5.245 3.699 3.699 0 0 0-5.236-.023c-.433.43-1.123 1.183-1.984 2.239zM43.35 82.512a26.52 26.52 0 0 0-3.232 4.201c-2.88 4.607-4.603 10.184-4.603 16.695a3.706 3.706 0 0 0 3.703 3.71 3.706 3.706 0 0 0 3.703-3.71c0-5.063 1.306-9.29 3.474-12.757a19.136 19.136 0 0 1 2.322-3.027c.261-.276.498-.505.702-.688.101-.091.155-.136.152-.134a3.713 3.713 0 0 0 .645-5.205 3.699 3.699 0 0 0-5.197-.646c-.392.306-.97.824-1.67 1.561z" fill="inherit" fill-rule="evenodd" stroke="none"></path></symbol><symbol viewBox="0 0 220 205" id="svg-icon-15" fill="inherit" stroke="inherit"><path d="M147.283 107.827V92.353h20.965c6.177 0 12.042 5.207 12.772 11.332l5.722 48.065c-12.733 2.145-22.492 13.045-22.875 26.294H57.942c-.392-13.554-10.597-24.65-23.759-26.428l5.706-47.93c.73-6.131 6.59-11.333 12.772-11.333h21.056v15.915a9.297 9.297 0 1 0 8.893-.442V92.354h55.78v15.915a9.297 9.297 0 1 0 8.893-.442zm23.055 70.217h10.046c5.42 0 9.007-4.038 8.366-9.42l-1.243-10.441c-9.52 1.755-16.794 9.925-17.17 19.861zm-118.867 0H40.525c-5.422 0-9.007-4.038-8.366-9.42l1.26-10.584c9.95 1.398 17.664 9.763 18.052 20.004zM73.717 84.27H52.661c-10.278 0-19.585 8.265-20.8 18.46l-7.73 64.939c-1.213 10.19 6.126 18.46 16.394 18.46h139.86c10.26 0 17.607-8.265 16.393-18.46l-7.731-64.939c-1.213-10.19-10.526-18.46-20.799-18.46h-20.965V56.78c0-20.31-16.47-36.781-36.783-36.781-20.317 0-36.783 16.466-36.783 36.781v27.49zm8.893 0h55.78V56.78c0-15.399-12.489-27.888-27.89-27.888-15.406 0-27.89 12.484-27.89 27.888v27.49z" fill="inherit" fill-rule="evenodd" stroke="none"></path></symbol><symbol viewBox="0 0 220 205" id="svg-icon-16" fill="inherit" stroke="inherit"><path d="M145.78 96H70.546c.284-21.668 7.182-37.538 18.492-48.698 4.017-3.963 8.317-7.036 12.604-9.321a42.65 42.65 0 0 1 4.07-1.917c.212-.086.403-.16.571-.225a76.455 76.455 0 0 1 3.513-.092c.22.08.494.186.819.317a42.651 42.651 0 0 1 4.07 1.917c4.286 2.285 8.586 5.358 12.603 9.321 11.31 11.16 18.208 27.03 18.492 48.698zm8.463 0h40.711c-2.574-14.658-12.266-28.638-27.148-39.905-11.195-8.476-24.53-14.7-37.929-17.903 1.135.972 2.254 2 3.355 3.086 12.9 12.728 20.719 30.751 21.01 54.722zm-92.16 0h-36.92c2.59-14.646 12.24-28.661 27.09-39.905 9.7-7.344 21.006-12.997 32.568-16.46-.58.533-1.156 1.08-1.727 1.643C70.194 54.006 62.375 72.03 62.084 96zm138.577 7.878h-.903l-84.556.032v50.791h-.011c-.031 16.335-13.738 30.553-30.078 30.553-16.358 0-29.62-13.261-29.62-29.62a5.172 5.172 0 0 1 10.344 0c0 10.646 8.63 19.276 19.276 19.276 10.627 0 19.725-9.586 19.757-20.21h-.01v-50.786l-80.184.03h-2.688l-5.945.064c0-20.388 11.64-39.924 31.103-54.66 16.762-12.69 37.886-20.71 57.75-21.908a5.224 5.224 0 0 1-.037-.627v-5.641a5.172 5.172 0 0 1 10.343 0v5.641c0 .213-.012.422-.037.627 19.864 1.199 40.988 9.217 57.75 21.908 19.464 14.736 31.146 34.181 31.146 54.57l-3.4-.04z" fill="inherit" fill-rule="evenodd" stroke="none"></path></symbol><symbol viewBox="0 0 220 205" id="svg-icon-17" fill="inherit" stroke="inherit"><path d="M18.456 99.538c-.434-4.194-.503-10.107-.432-16.088h18.828a4.22 4.22 0 1 0 0-8.44H18.196c.149-5.52.327-10.358.327-12.995 0-8.268 6-8.014 6-8.014h22.733c-.41 11.274.59 29.708 2.81 41.72a253.8 253.8 0 0 0 3.188 14.699 45.092 45.092 0 0 0-7.967-5.412c-9.105-4.861-18.58-6.166-26.83-5.47zm2.993 7.346c6.443 6.399 27.477 23.168 43.113 40.322a90.81 90.81 0 0 0-.035-.174 411.19 411.19 0 0 1-4.275-12.388 386.243 386.243 0 0 1-1.808-5.672c-4.193-8.037-9.859-13.699-16.69-17.346-6.793-3.626-13.934-4.91-20.305-4.742zm177.225-7.455c.42-4.187.486-10.05.417-15.98h-16.88a4.22 4.22 0 0 1 0-8.44h16.71c-.148-5.519-.324-10.357-.324-12.994 0-8.268-5.941-8.014-5.941-8.014h-21.358c.41 11.274-.59 29.708-2.81 41.72a254.201 254.201 0 0 1-3.236 14.891 45.081 45.081 0 0 1 8.193-5.604c8.521-4.55 17.367-5.984 25.23-5.579zm-2.963 7.443c-6.152 6.175-25.824 22.051-41.122 38.6a410.222 410.222 0 0 0 5.242-15.603c4.234-8.514 10.064-14.461 17.147-18.243 6.24-3.331 12.772-4.685 18.733-4.754zm-57.617 57.556c-9.045 6.216-23.842 6.797-29.094 6.797V54h53.852c.413 10.5-.527 28.624-2.663 40.186-2.21 11.961-5.621 24.73-9.908 37.832a406.63 406.63 0 0 1-8.76 24.14 333.46 333.46 0 0 1-3.427 8.269zm-57.31.744c9.192 5.52 23.132 6.053 28.216 6.053V54H55.702c-.413 10.5.527 28.624 2.664 40.186 2.21 11.961 5.62 24.73 9.908 37.832a406.63 406.63 0 0 0 8.76 24.14 333.462 333.462 0 0 0 2.88 6.997 206.535 206.535 0 0 0 .87 2.016zm29.1 17.122c-7.282-.022-29.305-1.14-37.332-13.558-17.877-27.656-55.499-51.132-58.702-56.74-3.203-5.609-1.274-47.546-1.274-57.422 0-9.876 6.606-9.573 6.606-9.573h181.636s6.606-.303 6.606 9.573c0 9.876 1.93 51.813-1.274 57.422-3.203 5.608-40.825 29.084-58.702 56.74-8.027 12.418-30.05 13.536-37.331 13.558a10.582 10.582 0 0 1-.234 0z" fill="inherit" fill-rule="evenodd" stroke="none"></path></symbol><symbol viewBox="0 0 220 205" id="svg-icon-18" fill="inherit" stroke="inherit"><path d="M73.759 159.137l-6.767-3.907 9.732-16.856s-6.251-18.923.568-36.905c6.82-17.982 31.734-67.412 46.345-81.004 10.045-9.343 24.131-4.751 31.956-.967l.036-.067s1.155.552 2.928 1.609c1.802 1.007 2.857 1.731 2.857 1.731l-.04.065c7.19 4.884 18.21 14.788 15.14 28.158-4.465 19.45-35.45 66.107-47.612 81.004-12.164 14.896-31.042 18.578-31.042 18.578l-9.733 16.857-7.44-4.296 60.75-105.222a4 4 0 1 0-6.928-4l-60.75 105.222zm10.368 15.224l-7.593 13.153s-4.734 8.198-15.164 2.636l-.006.01a23.583 23.583 0 0 1-.335-.196 23.583 23.583 0 0 1-.338-.192l.006-.01c-10.032-6.252-5.3-14.45-5.3-14.45l7.595-13.154 21.135 12.203zM162.28 15.114c-5.892-3.548-28.945-16.143-41.618-4.354-14.611 13.592-45.66 72.915-52.48 90.897-6.818 17.982.433 37.904.433 37.904l-21.326 36.938c-1.809 3.132-3.761 11.745 8.356 20.013l-.06.103c.49.283.97.55 1.443.8.454.285.925.568 1.414.85l.06-.103c13.218 6.36 19.697.37 21.51-2.77l21.326-36.938s20.879-3.682 33.042-18.578c12.163-14.897 48.014-71.447 52.48-90.897 3.872-16.87-18.562-30.537-24.58-33.865zM119 54.776a6 6 0 1 0 6-10.392 6 6 0 0 0-6 10.392zm-10 17.32a6 6 0 1 0 6-10.391 6 6 0 0 0-6 10.392zM99 89.418a6 6 0 1 0 6-10.392 6 6 0 0 0-6 10.392z" fill="inherit" fill-rule="evenodd" stroke="none"></path></symbol><symbol viewBox="0 0 220 205" id="svg-icon-19" fill="inherit" stroke="inherit"><g fill="inherit" fill-rule="evenodd" stroke="none"><path d="M0 0h220v205H0z" fill="none"></path><path d="M76.208 107.955l-38.837 49.257c-.021-.162-1.538-12.535-2.226-19.21-1.346-13.049-2.335-25.868-2.818-37.851-.823-20.393 1.911-44.795 1.911-44.795 21.575-5.2 51.836-6.228 90.081-4.927 28.202.96 55.259 3.087 63.172 4.927-.509.695-1.096 1.939-3.548 4.844-4.928 5.839-13.07 13.733-22.943 22.322-19.73 17.163-47.272 35.872-47.777 35.669a98.77 98.77 0 0 1-3.023-1.276 157.184 157.184 0 0 1-10.961-5.375c-11.382-6.113-22.77-13.777-33.384-23.084C59.09 82.525 52.856 76.1 47.262 69.17a4.5 4.5 0 1 0-7.003 5.653c5.928 7.345 12.521 14.139 19.662 20.4a184.92 184.92 0 0 0 16.287 12.732zm-32.289 53.872l38.973-49.428c4.009 2.545 8.048 4.9 12.088 7.07 4.19 2.251 8.087 4.14 11.595 5.683 2.13.938 3.675 1.558 4.539 1.875l1.526.561 1.532-.545c5.215-1.854 14.456-7.692 25.154-15.563l.004.005 38.714 49.102c-45.919 7.03-88.274 6.967-124.424 2.569a310.581 310.581 0 0 1-9.701-1.329zm140.102-6.581l-38.302-48.579a460.888 460.888 0 0 0 21.188-17.355c10.191-8.866 18.633-17.051 23.913-23.307 3.044-3.605 5.08-6.599 6.056-9.113 1.677-4.316.375-8.594-4.383-9.7-8.636-2.009-39.118-4.78-67.868-5.758-38.998-1.326-72.736.327-95.298 5.766l-2.688.648-.636 2.691c-2.779 11.744-3.522 28.824-2.669 49.975.492 12.189 1.495 25.189 2.858 38.411a771.5 771.5 0 0 0 2.189 18.944c.262 2.035 1.451 10.481 1.451 10.481s17.221 3.073 22.702 3.74c39.23 4.773 85.513 4.547 135.698-4.038l3.241-.554.457-3.256c.909-6.483 1.73-13.656 2.47-21.404 1.189-12.46 2.112-25.795 2.804-39.128.242-4.665.437-8.997.591-12.886.053-1.362.098-2.573.134-3.617l.032-.957c.085-2.819-1.868-4.893-4.352-4.968a4.502 4.502 0 0 0-4.634 4.363 679.017 679.017 0 0 1-.173 4.825c-.152 3.853-.346 8.148-.586 12.774-.685 13.213-1.601 26.423-2.776 38.739a546.333 546.333 0 0 1-1.419 13.263z" fill="inherit"></path></g></symbol><symbol viewBox="0 0 220 205" id="svg-icon-2" fill="inherit" stroke="inherit"><path d="M95.097 57.82c-18.751 17.85-51.87 82.528-53.059 99.615-1.36 19.544 37.565 38.759 53.902 31.12 14.708-6.877 52.578-75.626 59.157-98.4 3.868 1.411 6.73 2.179 8.048 2.064 7.963-.697 13.04-13.683 10.224-18.186-2.815-4.504-6.562-6.231-6.562-6.231s9.106-19.301-6.542-33.748c2.836-7.34-1.221-11.954-5.089-13.843-3.867-1.888-11.982-2.253-16.05 4.037-20.18-3.51-31.877 10.852-31.877 10.852s-6.575-.83-10.087 0c-3.511.83-9.794 5.064-8.472 15.133.4 1.985 2.756 4.613 6.407 7.588zm53.24 29.648c-8.89 23.686-43.157 84.627-54.333 92.81-12.472 6.515-43.715-8.65-42.597-24.728.95-13.67 33.15-73.579 50.676-92.623 12.974 8.715 32.598 18.764 46.254 24.541zm-46.566-44.555c-.865 0-3.391 2.438-3.391 5.072.348 7.565 53.57 33.607 60.305 34.672 6.735 1.065 7.05-5.92 4.439-8.03-2.611-2.108-6.96-4.88-6.96-4.88s10.307-17.742-5.873-31.38c3.089-7.266 3.74-8.43.583-10.253-3.157-1.822-5.53-.09-8.654 6.064-20.394-5.145-25.948 5.39-30.953 11.2-4.556-3.095-8.63-2.465-9.496-2.465zm31.064 62.593a5.698 5.698 0 1 0 0-11.396 5.698 5.698 0 0 0 0 11.396zm-8.548 14.245a5.698 5.698 0 1 0 0-11.396 5.698 5.698 0 0 0 0 11.396zm-7.597 14.245a5.698 5.698 0 1 0 0-11.396 5.698 5.698 0 0 0 0 11.396zm-8.547 14.245a5.698 5.698 0 1 0 0-11.396 5.698 5.698 0 0 0 0 11.396z" fill="inherit" fill-rule="evenodd" stroke="none"></path></symbol><symbol viewBox="0 0 220 205" id="svg-icon-20" fill="inherit" stroke="inherit"><path d="M170.697 49.55a3.994 3.994 0 0 0-1.31-.22h-6.325V25.5c0-.332-.04-.654-.116-.962A4 4 0 0 0 158.972 21H61.699c-9.385 0-15.436 8.215-15.632 18.086-.004.2-.006.401-.005.6v127.629a4.09 4.09 0 0 0-.026.46c0 .303-.004.526-.018 1.252-.048 2.54-.012 3.937.25 5.68 1.188 7.886 6.735 12.624 17.43 12.624h105.689c1.43 0 2.686-.751 3.393-1.88a3.99 3.99 0 0 0 1.282-2.935V53.5a4.001 4.001 0 0 0-3.365-3.95zm-4.635 7.78h-78v122h78v-122zm-112 115.165V55.37c2.168 1.254 4.732 1.962 7.637 1.962h18.363v122H63.699c-6.75 0-8.923-1.856-9.52-5.816-.05-.338-.09-.67-.117-1.02zm0-132.78v-.236l.003-.234C54.184 33.278 57.335 29 61.699 29h93.363v20.33H61.699c-4.668 0-7.596-3.877-7.637-9.616zM141.622 43a3.5 3.5 0 1 0 0-7h-73.06a3.5 3.5 0 0 0 0 7h73.06z" fill="inherit" fill-rule="evenodd" stroke="none"></path></symbol><symbol viewBox="0 0 220 205" id="svg-icon-21" fill="inherit" stroke="inherit"><path d="M14.218 158.251l89.56-4.693v-11.353c-17.198-.486-34.489-1.684-51.506-3.44a627.533 627.533 0 0 1-21.05-2.514c-2.185-.3-4.112-.58-5.763-.831a235.999 235.999 0 0 1-2.044-.32 4.005 4.005 0 0 1-1.857-7.075l82.22-117.421V9.289c0-5.711 8.011-5.726 8.011 0v.099l96.922 117.735a4.005 4.005 0 0 1-1.458 7.182c-13.609 2.98-28.316 5.097-43.96 6.423-16.758 1.42-34.054 1.916-51.504 1.651v10.759l95.527-5.006 4.174-.22-.159 3.54v1.862c0 23.131-38.327 42.198-57.566 42.198H43.407C24.169 195.512 9 181.382 9 158.252h5.218zm3.377 6.954l185.575-9.726c-2.506 18.025-35.59 32.022-49.405 32.022H43.407c-12.502 0-23.24-7.725-25.812-22.296zm86.183-31.015V24.57L31.24 128.166l1.075.149a619.558 619.558 0 0 0 20.78 2.482c16.748 1.728 33.766 2.909 50.683 3.393zm8.011.176V22.398c17.962 21.703 71.518 86.54 87.131 105.444-11.373 2.197-23.508 3.82-36.304 4.904-16.513 1.399-33.587 1.886-50.827 1.62z" fill="inherit" fill-rule="evenodd" stroke="none"></path></symbol><symbol viewBox="0 0 220 205" id="svg-icon-22" fill="inherit" stroke="inherit"><path d="M98.407 85.854h17.252c15.48 0 28.029 12.517 28.029 27.965 0 15.444-12.54 27.964-28.03 27.964h-17.25c-15.48 0-28.03-12.517-28.03-27.964 0-15.445 12.54-27.965 28.03-27.965zm0 47.883h17.252c11.032 0 19.965-8.914 19.965-19.918 0-11.003-8.937-19.92-19.965-19.92H98.407c-11.033 0-19.966 8.915-19.966 19.92 0 11.002 8.937 19.918 19.966 19.918zm45.207-57.884a43.762 43.762 0 0 0-25.106-7.865h-20.61C73.662 67.988 54 87.601 54 111.794v45.996c0 24.2 19.653 43.806 43.897 43.806h20.61c24.235 0 43.898-19.613 43.898-43.806v-45.996a43.57 43.57 0 0 0-9.832-27.634V49.321a4.475 4.475 0 0 0-4.48-4.47 4.475 4.475 0 0 0-4.48 4.47v26.532zm41.067-37.648C184.68 18.21 168.436 2 148.396 2c-20.039 0-36.284 16.21-36.284 36.205a36.03 36.03 0 0 0 9.001 23.87 4.038 4.038 0 0 0 5.69.37 4.017 4.017 0 0 0 .371-5.677 27.997 27.997 0 0 1-6.999-18.563c0-15.552 12.635-28.16 28.221-28.16s28.221 12.608 28.221 28.16a28 28 0 0 1-7.168 18.754 4.017 4.017 0 0 0 .32 5.68 4.038 4.038 0 0 0 5.692-.32 36.034 36.034 0 0 0 9.22-24.114zm-17.023.447c0-10.862-8.824-19.667-19.71-19.667-10.885 0-19.71 8.805-19.71 19.667a19.58 19.58 0 0 0 4.89 12.967 4.038 4.038 0 0 0 5.69.37 4.017 4.017 0 0 0 .371-5.676 11.545 11.545 0 0 1-2.887-7.66c0-6.419 5.214-11.622 11.646-11.622 6.433 0 11.647 5.203 11.647 11.621 0 2.9-1.062 5.623-2.958 7.74a4.017 4.017 0 0 0 .32 5.68 4.038 4.038 0 0 0 5.693-.32 19.581 19.581 0 0 0 5.008-13.1zM62.063 157.79c0 19.754 16.042 35.76 35.834 35.76h20.61c19.785 0 35.835-16.014 35.835-35.76v-45.996c0-19.754-16.041-35.76-35.834-35.76h-20.61c-19.785 0-35.835 16.013-35.835 35.76v45.996z" fill="inherit" fill-rule="evenodd" stroke="none"></path></symbol><symbol viewBox="0 0 220 205" id="svg-icon-23" fill="inherit" stroke="inherit"><path d="M147.691 86.01a108.204 108.204 0 0 0-4.229-1.388c-12.188-3.73-25.912-5.62-38.039-5.62-11.465 0-26.025 2.365-38.94 6.522-15.206 4.893-27.183 11.84-33.819 20.554-.098.13-.188.263-.268.4h-15.87v.023H12v13.504C12 157.552 42.442 188 79.995 188h55.01C172.551 188 203 157.557 203 120.004V106.5h-6.392v-.024H178.45a4.036 4.036 0 0 0-.305-.446c-3.02-3.846-6.727-7.28-11.034-10.309l37.198-33.716c5.592-5.07 5.804-13.52.46-18.863l-1.155-1.156c-5.339-5.34-13.676-5.039-18.611.68l-35.515 41.16c-.872.736-1.453 1.467-1.798 2.183zM22.221 132A59.243 59.243 0 0 1 21 120.005v-4.528h173v4.528c0 4.11-.42 8.123-1.22 11.996H22.22zm2.625 9c8.464 22.215 29.965 38 55.149 38h55.01c25.183 0 46.685-15.785 55.149-38H24.846zm18.405-34.524C56.414 94.97 83.59 87.001 105.423 87.001c23.922 0 48.663 6.83 62.273 19.476H43.25zm119.172-16.233l37.185-33.425c2.63-2.384 2.725-6.214.213-8.727l-1.156-1.156c-2.464-2.464-6.086-2.332-8.361.305L157.789 85.4c-2.54 2.942 1.799 7.413 4.634 4.843zM135.13 48.931l-.05-.13c-1.414-3.684-1.54-5.326-.024-9.408a4 4 0 1 0-7.5-2.784c-2.274 6.126-2 9.702.056 15.059l.05.13c1.507 3.927 1.63 5.704-.096 10.259a4 4 0 0 0 7.48 2.835c2.502-6.599 2.242-10.34.084-15.961zm-50 0l-.05-.13c-1.414-3.684-1.54-5.326-.024-9.408a4 4 0 1 0-7.5-2.784c-2.274 6.126-2 9.702.056 15.059l.05.13c1.507 3.927 1.63 5.704-.096 10.259a4 4 0 1 0 7.48 2.835c2.502-6.599 2.242-10.34.084-15.961zm25.086-6.28l-.077-.248c-1.466-4.735-1.605-6.91-.083-11.01a4 4 0 1 0-7.5-2.784c-2.244 6.047-2 9.895-.059 16.16l.078.252c1.593 5.138 1.733 7.44-.01 12.036a4 4 0 0 0 7.481 2.835c2.486-6.558 2.243-10.555.17-17.24z" fill="inherit" fill-rule="evenodd" stroke="none"></path></symbol><symbol viewBox="0 0 220 205" id="svg-icon-24" fill="inherit" stroke="inherit"><path d="M126.897 47.254c-17.369-.028-37.414 13.493-50.442 35.176-13.343 22.206-15.673 46.89-6.768 62.145-.427.075-.868.155-1.324.24-3.44.64-6.973 1.435-10.416 2.4-4.323 1.213-8.199 2.608-11.472 4.215-5.79 2.844-9.582 6.26-10.695 10.643-1.672 6.583 2.153 12.073 8.848 14.373 2.137.734 9.856 1.848 11.157 1.905.791.035.198.362 1.416 1.688 3.44 3.743 7.571 6.734 12.383 8.206 1.885.577 3.82.894 5.795.922 0 0 3.765 3.706 3.948 3.86 4.73 3.986 6.64 5.38 9.281 6.265 4.57 1.53 8.353-1.62 10.24-6.89 1.147-3.199 1.685-7.38 1.754-12.422.035-2.62-.058-5.434-.261-8.393a156.863 156.863 0 0 0-1.114-10.618c-.115-.828-.229-1.608-.34-2.332 16.326-1.923 34.268-14.968 46.263-34.93 11.59-19.29 14.87-40.45 9.695-55.675 10.147-2.132 21.404-8.403 28.412-16.108 3.766-4.141 3.88-8.505.384-11.822-2.02-1.917-4.149-2.948-9.89-5.254-.22-.089-4.346-1.739-5.715-2.561 0 0-1.686-2.403-3.08-3.796-3.559-3.557-8.139-5.8-13.06-7.081-1.741-.453-1.022-.308-2.154-.458a50.334 50.334 0 0 0-2.243-3.474c-1.466-2.077-3.026-3.94-4.678-5.483-5.173-4.832-10.925-6.085-15.953-1.519-3.348 3.042-4.584 7.992-4.376 14.44.118 3.645.705 7.722 1.665 12.108.757 3.46 1.702 6.92 2.74 10.23zm-51.645 104.27a27.72 27.72 0 0 0 4.444 3.315c3.447 2.07 7.2 3.317 11.14 3.805a.58.58 0 0 1 .113.137c.15.932.308 1.989.468 3.146.457 3.308.832 6.753 1.065 10.15.192 2.78 2.721 17.592-3.049 17.663-5.77.07-8.564-6.948-10.634-8.333-2.07-1.384-6.236-.103-10.919-2.916-3.829-2.301-8.269-8.613-8.269-8.613s-9.39-1.137-11.031-1.701c-3.72-1.278-3.156-4.076-2.55-6.46.495-1.95 11.054-6.164 15.004-7.271 2.926-.82 11.554-2.56 14.218-2.923zm9.363-4.73c-14.397-8.651-15.16-35.356-.574-59.631 14.586-24.276 38.523-36.14 52.92-27.488 14.398 8.65 15.161 35.355.575 59.63-14.587 24.276-38.524 36.14-52.92 27.488zm50.842-101.585a102.931 102.931 0 0 1-2.364-8.805c-.793-3.627-1.273-6.956-1.366-9.827-.135-4.186.577-7.036 1.925-8.26 1.648-1.497 3.406-1.113 6.007 1.316 1.148 1.071 2.297 2.444 3.397 4.002a39.374 39.374 0 0 1 2.218 3.531c.076.138.124.228.143.265l.776 1.495 1.676.167c.093.01.322.04.667.098a23.19 23.19 0 0 1 2.014.434c3.473.904 6.665 2.467 8.986 4.787a12.571 12.571 0 0 1 2.146 2.837l.404.735.718.432c1.614.97 3.259 1.708 6.365 2.958l.404.162c4.306 1.73 5.98 2.54 6.985 3.495.574.544.571.636-.668 1.999-6.213 6.831-23.39 13.316-23.39 13.316-1.1-2.056-1.623-2.485-3.314-4.234-3.514-3.633-7.846-6.332-12.237-8.235-.983-.426-1.178-1.67-1.492-2.668z" fill="inherit" fill-rule="evenodd" stroke="none"></path></symbol><symbol viewBox="0 0 220 205" id="svg-icon-25" fill="inherit" stroke="inherit"><g fill="inherit" fill-rule="evenodd" stroke="none"><path d="M0 0h220v205H0z" fill="none"></path><path d="M40.007 23h140.986C190.938 23 199 31.063 199 41.002v129.996c0 9.942-8.065 18.002-18.007 18.002H40.007C30.062 189 22 180.937 22 170.998V41.002C22 31.06 30.065 23 40.007 23zM31 155v15.998c0 4.969 4.033 9.002 9.007 9.002H107v-25H31zm85-123v148h64.993c4.973 0 9.007-4.032 9.007-9.002V41.002c0-4.969-4.033-9.002-9.007-9.002H116zM77.529 169a3.5 3.5 0 1 0 0-7H61.5a3.5 3.5 0 1 0 0 7h16.029zM31 146h76V32H40.007C35.034 32 31 36.032 31 41.002V146zm66.529-44.993a3.5 3.5 0 1 0-7-.014l-.029 15a3.5 3.5 0 1 0 7 .014l.029-15zm35 0a3.5 3.5 0 1 0-7-.014l-.029 15a3.5 3.5 0 1 0 7 .014l.029-15z" fill="inherit"></path></g></symbol><symbol viewBox="0 0 220 205" id="svg-icon-26" fill="inherit" stroke="inherit"><path d="M41.375 107.142c.088-.194.177-.388.267-.58l27.462-58.893c14.008-30.04 49.702-43.037 79.74-29.03 30.035 14.005 43.026 49.7 29.016 79.744l-13.958 29.935c-16.28 5.944-34.569 6.992-54.25 3.92-24.07-3.756-49.917-14.855-68.277-25.096zm-2.844 7.57c-8.447 28.085 4.77 58.837 32.128 71.594 30.037 14.006 65.732 1.01 79.74-29.03l8.756-18.78c-15.655 4.318-32.492 4.494-50.736 1.647-24.7-3.855-50.854-14.938-69.888-25.43zm114.116-104.23c34.537 16.105 49.482 57.153 33.37 91.705l-27.462 58.892c-16.107 34.542-57.155 49.492-91.7 33.383-34.537-16.105-49.482-57.153-33.37-91.704l27.462-58.893c16.107-34.542 57.155-49.492 91.7-33.383zm17.03 82.971c11.787-25.277.851-55.324-24.426-67.11-25.277-11.788-55.324-.852-67.11 24.426-11.788 25.277-.852 55.323 24.426 67.11 25.277 11.787 55.323.851 67.11-24.426zm-83.38-38.88c9.686-20.773 34.378-29.76 55.15-20.074 20.773 9.686 29.76 34.378 20.074 55.15-9.687 20.773-34.379 29.76-55.15 20.074-20.773-9.687-29.76-34.378-20.074-55.15zm22.172 13.011a7 7 0 1 0 5.917-12.688 7 7 0 0 0-5.917 12.688zm29.002 13.524a7 7 0 1 0 5.916-12.688 7 7 0 0 0-5.916 12.688zm-31.663 1.953c.428.77.95 1.58 1.576 2.396 4.146 5.412 10.414 8.471 18.721 6.973a3.5 3.5 0 1 0-1.242-6.89c-5.473.988-9.254-.857-11.922-4.34a12.61 12.61 0 0 1-1.013-1.536 6.664 6.664 0 0 1-.246-.476 3.5 3.5 0 0 0-6.446 2.73c.112.263.3.654.572 1.143z" fill="inherit" fill-rule="evenodd" stroke="none"></path></symbol><symbol viewBox="0 0 220 205" id="svg-icon-27" fill="inherit" stroke="inherit"><path d="M185.802 177.663c15.921-7.26 26.95-20.875 29.552-38.494 1.19-6.908-2.22-8.169-3.27-8.169h-2.959c-37.722-.098-39.646-2.653-63.034-7.408-18.977-3.858-32.738-8.803-47.182-16.108a341.77 341.77 0 0 1-7.714-4.045c-.846-.454-3.83-2.063-3.734-2.012a573.624 573.624 0 0 0-3.72-1.989c-21.98-11.636-38.844-16.252-69.797-16.437V83h.238l-.95-.002.519.002h-2.792c-5.128 0-5.996 3.7-5.958 5.523.531 25.147 4.732 46.916 12.878 63.177 6.002 11.982 14.07 20.83 24.143 26.109l-5.201 11.887a4.5 4.5 0 0 0 8.245 3.608l5.288-12.087c4.968 1.509 10.332 2.283 16.087 2.283h91.005c7.062 0 13.746-.94 19.897-2.717l5.478 12.52a4.5 4.5 0 1 0 8.245-3.607l-5.264-12.033zm-136.443-6.435c-21.574-9.056-33.296-36.461-35.153-76.568-.069-1.477.679-2.254 2.3-2.632 27.754.408 42.9 4.71 63.025 15.364 1.08.572 2.187 1.165 3.662 1.96l3.742 2.016a350.108 350.108 0 0 0 7.912 4.147c15.136 7.655 29.653 12.871 49.451 16.897 22.645 4.604 26.163 7.182 58.554 7.546 1.907.022 2.728.795 2.554 2.841-.034.126-.07.252-.105.377-5.423 19.145-23.793 31.324-47.855 31.324H66.44c-6.019 0-11.52-1.034-16.505-3.035a4.576 4.576 0 0 0-.577-.237zM97.444 64.5c0-10.217-8.283-18.5-18.5-18.5-10.218 0-18.5 8.283-18.5 18.5S68.726 83 78.944 83c10.217 0 18.5-8.283 18.5-18.5zm-29 0c0-5.799 4.7-10.5 10.5-10.5 5.799 0 10.5 4.701 10.5 10.5S84.743 75 78.944 75c-5.8 0-10.5-4.701-10.5-10.5zm82-33c0-12.979-10.522-23.5-23.5-23.5-12.98 0-23.5 10.521-23.5 23.5s10.52 23.5 23.5 23.5c12.978 0 23.5-10.521 23.5-23.5zm-39 0c0-8.56 6.94-15.5 15.5-15.5 8.56 0 15.5 6.94 15.5 15.5 0 8.56-6.94 15.5-15.5 15.5-8.56 0-15.5-6.94-15.5-15.5zm25.5 50.5c0-6.351-5.15-11.5-11.5-11.5-6.352 0-11.5 5.149-11.5 11.5s5.148 11.5 11.5 11.5c6.35 0 11.5-5.149 11.5-11.5zm-16 0a4.5 4.5 0 1 1 9 0 4.5 4.5 0 0 1-9 0z" fill="inherit" fill-rule="evenodd" stroke="none"></path></symbol><symbol viewBox="0 0 220 205" id="svg-icon-28" fill="inherit" stroke="inherit"><path d="M194 40.317V47H28v-7.088c4.131-1.896 7-6.069 7-10.912 0-6.627-5.373-12-12-12s-12 5.373-12 12c0 5.225 3.34 9.67 8 11.317V148.84c0 .283.026.56.076.83A4.5 4.5 0 0 0 23.5 155h174.188a4.502 4.502 0 0 0 4.364-3.397 4.48 4.48 0 0 0 .948-2.763V39.912c4.131-1.896 7-6.069 7-10.912 0-6.627-5.373-12-12-12s-12 5.373-12 12c0 5.225 3.34 9.67 8 11.317zM28 56v63h34.5V56H28zm166 0v63h-38.5V56H194zm-47.5 0v63h-33V56h33zm-42 0v63h-33V56h33zM28 128v18h166v-18H28zm24.5 50c0-9.665-7.835-17.5-17.5-17.5s-17.5 7.835-17.5 17.5 7.835 17.5 17.5 17.5 17.5-7.835 17.5-17.5zm-28 0c0-5.799 4.701-10.5 10.5-10.5s10.5 4.701 10.5 10.5-4.701 10.5-10.5 10.5-10.5-4.701-10.5-10.5zm179 0c0-9.665-7.835-17.5-17.5-17.5s-17.5 7.835-17.5 17.5 7.835 17.5 17.5 17.5 17.5-7.835 17.5-17.5zm-28 0c0-5.799 4.701-10.5 10.5-10.5s10.5 4.701 10.5 10.5-4.701 10.5-10.5 10.5-10.5-4.701-10.5-10.5z" fill="inherit" fill-rule="evenodd" stroke="none"></path></symbol><symbol viewBox="0 0 220 205" id="svg-icon-29" fill="inherit" stroke="inherit"><path d="M50.778 130.054C61.963 133.904 70 144.518 70 157.01c0 15.74-12.76 28.5-28.5 28.5S13 172.75 13 157.01s12.76-28.5 28.5-28.5c.476 0 .949.012 1.42.035a1732.84 1732.84 0 0 1 6.51-28.581 1068.142 1068.142 0 0 1 4.103-16.72c5.076-19.937 9.179-33.092 12.327-38.33 3.623-6.028 9.38-10.297 16.596-13.116 4.279-1.671 8.815-2.734 13.343-3.324a59.957 59.957 0 0 1 4.38-.413c.818-.045 1.42-.061 1.774-.061 2.21 0 3.999 2.012 4 4 .008 9.573-27.555 3.346-33.236 17.034-5.681 13.688-6.593 17.18-11.432 36.184a1056.946 1056.946 0 0 0-4.028 16.411c.16.185.306.388.434.606a264.876 264.876 0 0 0 1.334 2.242 388.472 388.472 0 0 0 3.673 5.975c3.875 6.181 7.965 12.361 12.077 18.117 2.918 4.084 5.742 7.804 8.43 11.074 6.311 7.679 11.638 12.534 15.048 13.684 5.164 1.742 19.312 2.32 38.971 1.864a779.61 779.61 0 0 0 13.865-.453c1.158-14.678 13.435-26.228 28.411-26.228 15.74 0 28.5 12.76 28.5 28.5s-12.76 28.5-28.5 28.5c-13.783 0-25.28-9.784-27.927-22.785-4.85.2-9.594.358-14.163.464-20.796.482-35.274-.11-41.714-2.281-5.299-1.788-11.434-7.38-18.672-16.185-2.811-3.42-5.742-7.281-8.758-11.503-4.216-5.901-8.392-12.21-12.346-18.519-.428-.682-.844-1.35-1.247-2.001a1871.355 1871.355 0 0 0-3.895 17.354zm-9.592 6.459C30.009 136.68 21 145.793 21 157.01c0 11.322 9.178 20.5 20.5 20.5s20.5-9.178 20.5-20.5c0-8.652-5.36-16.052-12.94-19.06l-.475 2.205a2090.342 2090.342 0 0 0-3.407 16.177l-.255 1.247a4 4 0 0 1-4.717 3.123c-2.165-.44-3.563-2.552-3.057-5.042l.193-.94a2097.619 2097.619 0 0 1 3.421-16.246l.423-1.961zm118.518 25.843c2.352 8.73 10.324 15.154 19.796 15.154 11.322 0 20.5-9.178 20.5-20.5s-9.178-20.5-20.5-20.5c-10.428 0-19.038 7.786-20.332 17.863a1076.157 1076.157 0 0 0 19.658-1.15l1.344-.095a4 4 0 0 1 4.28 3.699c.16 2.203-1.495 4.12-4.055 4.305l-1.019.072a1083.995 1083.995 0 0 1-19.672 1.152z" fill="inherit" fill-rule="evenodd" stroke="none"></path></symbol><symbol viewBox="0 0 220 205" id="svg-icon-3" fill="inherit" stroke="inherit"><path d="M133.405 117.424c2.814 3.96 5.823 7.97 9.202 11.92 6.302-5.794 14.697-9.33 23.914-9.33 19.563 0 35.422 15.928 35.422 35.575 0 19.647-15.86 35.574-35.422 35.574-19.564 0-35.423-15.927-35.423-35.574a35.516 35.516 0 0 1 6.423-20.434c-24.228-27.117-24.014-48.97-59.97-53.554a179.42 179.42 0 0 0-2.99 11.24c21.925 5.055 38.278 24.773 38.278 48.326 0 27.384-22.104 49.584-49.37 49.584-27.268 0-49.372-22.2-49.372-49.584 0-27.384 22.104-49.583 49.371-49.583.723 0 1.442.016 2.158.047 4.447-18.857 11.868-38.426 24.482-50.047 28.935-26.656 59.677-9.375 63.064-5.493 3.387 3.883 1.425 10.222-3.79 9.766-5.216-.456-24.71-22.769-51.857.186-7.87 6.654-13.6 17.207-17.812 28.988 26.307 1.8 36.616 17.534 49.073 35.738 3.07-3.303 8.16-8.31 14.179-12.388a3.194 3.194 0 0 1-.648-.427c-3.783-3.386-.766-5.725 0-6.376.767-.652 39.78-8.117 43.295-4.725 3.513 3.391 3.244 11.665-.987 14.18-2.84 1.687-19.235 1.247-30.846-.25-9.68 4.252-17.317 12.837-20.374 16.64zm14.576 17.79c4.888-4.486 11.396-7.222 18.54-7.222 15.181 0 27.49 12.36 27.49 27.608 0 15.247-12.309 27.608-27.49 27.608-15.183 0-27.49-12.36-27.49-27.608 0-5.33 1.503-10.308 4.108-14.527 5.658 5.61 12.488 11.399 20.987 17.268 3.576 2.234 8.717-3.647 4.576-6.92-8.325-4.895-15.036-10.42-20.72-16.207zm-75.27-33.652c17.925 4.2 31.277 20.349 31.277 39.63 0 22.475-18.142 40.694-40.52 40.694-22.379 0-40.52-18.22-40.52-40.694 0-22.475 18.141-40.694 40.52-40.694h.26c-4.043 20.91-4.705 39.132-5.236 41.993-1.074 5.779 6.727 8.064 8.463 1.959.867-3.053 1.723-21.918 5.756-42.888z" fill="inherit" fill-rule="evenodd" stroke="none"></path></symbol><symbol viewBox="0 0 220 205" id="svg-icon-30" fill="inherit" stroke="inherit"><path d="M46.967 58.978c2.212-3.97 5.93-5.559 16.105-7.499 6.13-1.169 14.056 5.673 20.539 19.759 7.728 16.793 12.27 41.17 12.27 70.253v6.04l5.619-2.218c30.214-11.933 53.333-16.615 69.651-15.421 11.504.842 18.355 4.565 20.353 8.758.917 1.924-.34 8.314-3.532 16.774-.87 2.303-1.86 4.722-2.948 7.221a226.648 226.648 0 0 1-4.78 10.243c-.57 1.15-.63 1.133-1.103 2.05-.165.318-102.35.22-102.66 0-.538-.38-.705-.774-1.192-2.133a1381.261 1381.261 0 0 1-4.615-13.094c-4.776-13.76-9.551-28.132-14.007-42.395a1034.712 1034.712 0 0 1-6.94-23.126c-5.35-18.674-5.88-29.61-2.76-35.212zm85.282 67.7c13.776-3.471 29.48-6.39 39.502-4.983 14.098 1.981 23.744 6.227 27.172 13.418 2.296 4.817.788 12.479-3.262 23.213a166.097 166.097 0 0 1-3.1 7.6 234.816 234.816 0 0 1-7.223 15.056l-1.16 2.174H70.308l-1.108-3.02-.345-.945a920.9 920.9 0 0 1-1.303-3.613 1409.6 1409.6 0 0 1-4.642-13.173c-4.802-13.836-9.604-28.286-14.087-42.639a1042.887 1042.887 0 0 1-6.997-23.313c-4.646-16.217-6.02-27.604-4.21-35.645a77.201 77.201 0 0 1-5.82-4.701c-5.033-4.506-8.605-9.02-10.08-13.626-1.605-5.013-.539-9.843 3.468-13.667C39.51 15.142 70.381 9.072 88.46 18.684c13.293 7.068 24.1 16.61 32.274 31.282 10.57 18.974 14.89 44.172 11.515 76.712zM41.006 53.074c2.08-2.846 4.896-4.925 8.454-6.444 3.138-1.34 6.214-2.107 12.072-3.224C72.37 41.34 83.201 50.69 91.076 67.802c8.266 17.96 12.824 37.116 12.824 67.311 0 0 8.468-2.977 19.829-6.163 3.82-32.48-.151-56.991-10.175-74.985-7.319-13.138-16.954-21.644-28.953-28.024-14.77-7.853-41.854-2.528-53.743 8.819-1.652 1.576-1.99 3.106-1.315 5.215.926 2.891 3.697 6.394 7.735 10.008a66.606 66.606 0 0 0 3.728 3.091z" fill="inherit" fill-rule="evenodd" stroke="none"></path></symbol><symbol viewBox="0 0 220 205" id="svg-icon-31" fill="inherit" stroke="inherit"><path d="M143.868 31.514c-1.318.06-2.67.13-4.06.209-1.247 7.788-6.836 13.03-15.151 16.167-2.727 1.029-5.567 1.768-8.637 2.343-.472.088-1.127.2-1.795.31v71.808c2.129.512 4.84.657 6.6 2.94 1.028 1.335 1.955 3.006 2.807 5.062 1.59 3.835 1.503 7.239.326 20.354-.37 4.131-.565 6.656-.69 9.322-.25 5.344-.09 9.689.582 13.375 1.884 10.335 22.581 10.049 26.863-.89 5.82-14.863 8.443-57.905 5.08-106.612l-.301-4.358 4.337.511c13.513 1.592 25.883.482 39.78-2.347 3.295-.67 9.574-2.277 9.867-2.36.066-.92.536-11.421.573-16.417-1.444-.379-9.733-2.707-10.045-2.795-19.742-5.576-32.382-7.69-55.992-6.629a3.586 3.586 0 0 1-.144.007zm-37.77 90.837c-2.13.512-4.84.657-6.6 2.94-1.028 1.335-1.956 3.006-2.808 5.062-1.59 3.835-1.503 7.239-.325 20.354.37 4.131.565 6.656.69 9.322.25 5.344.09 9.689-.582 13.375-1.884 10.335-22.582 10.049-26.864-.89-5.818-14.863-8.443-57.905-5.079-106.612l.301-4.358-4.338.511c-13.512 1.592-25.882.482-39.78-2.347-3.295-.67-9.573-2.277-9.867-2.36-.065-.92-.535-11.421-.573-16.417 1.444-.379 9.734-2.707 10.046-2.795 20.882-5.898 33.818-7.922 60.195-6.413 1.248 7.788 6.837 13.03 15.152 16.167 2.726 1.029 5.567 1.768 8.637 2.343.471.088 1.127.2 1.795.31v71.808zm4.063-78.247l.599-.146c.478-.118 3.815-.633 4.945-.845 2.685-.503 5.133-1.14 7.414-2 5.661-2.136 9.22-5.199 10.343-9.598H86.86c1.125 4.4 4.682 7.462 10.344 9.598 2.28.86 4.728 1.497 7.413 2 1.13.212 4.467.727 4.946.845l.598.146zm34.017-19.81c24.67-1.15 38.226 1.056 58.814 6.872.321.09 15.33 4.111 15.33 4.111l-1.056 27.558s-11.742 3.268-15.193 3.971c-13.137 2.675-24.642 3.903-37.707 2.881.685.054.246 89.798-5.889 105.468-6.68 17.062-38.381 18.941-41.735.549-.786-4.314-.964-9.168-.69-15.013.13-2.796.33-5.404.71-9.632 1.008-11.227 1.098-14.76.197-16.933-.622-1.5-1.244-2.622-1.853-3.413-1.017-1.32-1.479-1.475-3.484-1.475h-2.925c-2.002 0-2.464.156-3.48 1.475-.61.79-1.232 1.912-1.854 3.413-.9 2.172-.81 5.706.197 16.933.38 4.228.58 6.836.711 9.632.274 5.845.096 10.699-.69 15.013-3.354 18.392-35.056 16.513-41.736-.549-6.134-15.67-6.573-105.414-5.888-105.468-13.065 1.022-24.57-.206-37.707-2.88-3.451-.704-15.193-3.972-15.193-3.972L2 35.277s15.01-4.02 15.331-4.111c21.024-5.939 34.715-8.113 60.394-6.795.272-.065.556-.1.848-.1h65.2c.137 0 .272.008.405.023z" fill="inherit" fill-rule="evenodd" stroke="none"></path></symbol><symbol viewBox="0 0 220 205" id="svg-icon-32" fill="inherit" stroke="inherit"><g fill="inherit" fill-rule="evenodd" stroke="none"><path d="M0 0h220v205H0z" fill="none"></path><path d="M129.787 107.328a66.614 66.614 0 0 1-2.996 3.636l5.884 5.044a3.999 3.999 0 0 1 .434 5.64 3.999 3.999 0 0 1-5.64.434l-6.403-5.488a50.511 50.511 0 0 1-3.064 2.408l4.673 4.006a3.999 3.999 0 0 1 .434 5.64 3.999 3.999 0 0 1-5.64.434l-6.7-5.743-.21.101c-7.008 3.36-12.247 4.45-24.247 5.903-12.857 1.558-17.696 3.212-22.339 8.87a28.51 28.51 0 0 0-2.873 4.184c-4.833 8.647-3.639 18.04 1.467 27.314a44.191 44.191 0 0 0 3.15 4.927c.369.499.708.934 1.007 1.299.167.203 18.131.165 28.859.173 15.685.012 30.737.022 44.473.028 36.834.015 60.614.761 60.602 0-.011-.738-.041-.786-.027-1.303.095-3.492.042-5.619-.462-22.033a1353.46 1353.46 0 0 1-.345-12.714c-.333-15.441 1.055-32.066.834-32.079a73.876 73.876 0 0 0-2.266-.069c-7.452-.157-10.246-.261-15.47-.717-7.747-.677-15.111-1.879-22.084-3.782-7.361-2.008-14.011-4.733-19.816-8.292-.096-.059-2.184-1.584-3.074-.783 0 0-2.379 4.387-3.894 6.801.58.146 1.136.425 1.621.841l7 6a3.999 3.999 0 0 1 .434 5.64 3.999 3.999 0 0 1-5.64.434l-7-6a3.97 3.97 0 0 1-.682-.754zM62.074 183.76a8.657 8.657 0 0 0 4.625 1.325c8.95.008 18.148.017 28.877.025 15.686.012 30.739.022 44.476.028 37.48.016 59.747.001 61.588-.055 6.134-.189 8.074-3.249 7.989-8.732-.01-.616-.011-.92-.001-1.272.102-3.764.052-5.778-.464-22.554-.158-5.151-.262-8.904-.342-12.631-.322-14.921-.133-25.252.759-31.293.599-4.053-1.929-7.506-5.769-9.092-1.133-.469-1.498-.489-5.231-.567-15.089-.317-24.083-1.102-35.374-4.183-6.587-1.797-16.622-6.776-18.873-8.117-4.128-2.459-8.704-2.437-12.886 1.326l-.618.556-.379.741c-6.998 13.697-14.73 21.72-23.782 26.06-5.838 2.798-10.394 3.746-21.439 5.084-7.263.879-10.732 1.487-14.722 2.851-5.406 1.848-9.827 4.777-13.492 9.243a37.496 37.496 0 0 0-3.772 5.504c-6.606 11.819-5.018 24.319 1.439 36.045a53.332 53.332 0 0 0 3.796 5.935 50.514 50.514 0 0 0 1.748 2.204c.418.5 1.023 1.054 1.847 1.569zM80.002 76.002a50.511 50.511 0 0 0 3.064-2.408l6.403 5.488a3.999 3.999 0 0 0 5.64-.434 3.999 3.999 0 0 0-.434-5.64l-5.884-5.044a66.614 66.614 0 0 0 2.996-3.636c.19.274.417.527.682.754l7 6a3.999 3.999 0 0 0 5.64-.434 3.999 3.999 0 0 0-.434-5.64l-7-6a3.974 3.974 0 0 0-1.621-.841c1.515-2.414 3.771-6.646 3.771-6.646.89-.801.977-.652 2.159 0 .148.081 13.493 6.912 20.854 8.92 6.973 1.903 14.337 3.105 22.084 3.782 5.224.456 8.018.56 15.47.717 1.136.024 1.79.043 2.266.069.221.013-.512 24.303-.522 24.762-.159 1.134 9.487 2.384 9.445.428-.322-14.922-.892-18.557 0-24.598.599-4.053-1.929-7.506-5.769-9.092-1.133-.469-1.498-.489-5.231-.567-15.089-.317-24.083-1.102-35.374-4.183-6.587-1.797-18.589-7.96-18.873-8.117-4.207-2.322-8.704-2.437-12.886 1.326l-.997 1.297c-6.998 13.697-14.73 21.72-23.782 26.06-5.838 2.798-10.394 3.746-21.439 5.084-7.263.879-10.732 1.487-14.722 2.851-5.406 1.848-9.827 4.777-13.492 9.243a37.496 37.496 0 0 0-3.772 5.504c-6.606 11.819-5.018 24.319 1.439 36.045a53.332 53.332 0 0 0 3.796 5.935c.796 1.077 1.436 1.858 1.839 2.31.327.394.932.948 1.756 1.463a8.657 8.657 0 0 0 4.625 1.325c8.95.008 7.802-.011 18.531-.002.235-3.074 1.833-8.867 1.73-8.669-4.592 0-20.069-.274-20.236-.477-.299-.365-.638-.8-1.007-1.299a44.191 44.191 0 0 1-3.15-4.927c-5.106-9.274-6.3-18.667-1.467-27.314a28.51 28.51 0 0 1 2.873-4.184c4.643-5.658 9.482-7.312 22.339-8.87 12-1.453 24.387-5.97 24.457-6.004l6.7 5.743a3.999 3.999 0 0 0 5.64-.434 3.999 3.999 0 0 0-.434-5.64l-4.673-4.006z" fill="inherit"></path></g></symbol><symbol viewBox="0 0 220 205" id="svg-icon-33" fill="inherit" stroke="inherit"><path d="M113 161.206c0-9.503 7.703-17.206 17.206-17.206 9.502 0 17.206 7.703 17.206 17.206 0 9.502-7.704 17.206-17.206 17.206-9.503 0-17.206-7.704-17.206-17.206zm-44 0C69 151.703 76.703 144 86.206 144c9.502 0 17.206 7.703 17.206 17.206 0 9.502-7.704 17.206-17.206 17.206-9.503 0-17.206-7.704-17.206-17.206zm88 0c0-9.503 7.703-17.206 17.206-17.206 9.502 0 17.206 7.703 17.206 17.206 0 9.502-7.704 17.206-17.206 17.206-9.503 0-17.206-7.704-17.206-17.206zm-132 0C25 151.703 32.703 144 42.206 144c9.502 0 17.206 7.703 17.206 17.206 0 9.502-7.704 17.206-17.206 17.206-9.503 0-17.206-7.704-17.206-17.206zm114.412 0a9.206 9.206 0 1 0-18.412 0 9.206 9.206 0 0 0 18.412 0zm-44 0a9.206 9.206 0 1 0-18.412 0 9.206 9.206 0 0 0 18.412 0zm88 0a9.206 9.206 0 1 0-18.412 0 9.206 9.206 0 0 0 18.412 0zm-132 0a9.206 9.206 0 1 0-18.412 0 9.206 9.206 0 0 0 18.412 0zm-2.713-22.121a166943.064 166943.064 0 0 0 73.353.053c37.48.016 59.747.001 61.588-.055 6.134-.189 8.074-3.249 7.989-8.732-.01-.616-.01-.92-.001-1.272.102-3.764.052-5.778-.464-22.554-.158-5.15-.262-8.904-.342-12.63-.322-14.922-.133-25.253.76-31.293.598-4.054-1.93-7.507-5.77-9.093-1.133-.469-1.498-.489-5.231-.567-15.09-.317-24.083-1.102-35.374-4.183-6.587-1.797-12.458-4.203-17.48-7.282-.056-.034-.417-.26-.543-.337a20.862 20.862 0 0 0-.85-.498c-4.207-2.323-8.704-2.437-12.886 1.326l-.618.556-.379.741c-6.998 13.697-14.73 21.72-23.782 26.06-5.838 2.798-10.394 3.746-21.439 5.084-7.263.88-10.732 1.487-14.722 2.851-5.406 1.848-9.828 4.777-13.492 9.243a37.571 37.571 0 0 0-3.772 5.504c-6.606 11.819-5.018 24.32 1.439 36.045a53.134 53.134 0 0 0 3.796 5.935 50.796 50.796 0 0 0 1.748 2.204c.418.5 1.023 1.054 1.847 1.57a8.655 8.655 0 0 0 4.625 1.324zm48.299-64.498c.228.244.476.54.696.882 1.683 2.62 3.552 5.237 5.543 7.665 4.876 5.945 9.639 9.666 13.433 10.17 1.623.217 3.066-.16 4.535-1.276 2.788-2.118 3.046-5.175.87-9.908-1.373-2.984-3.626-6.281-6.51-9.693a85.784 85.784 0 0 0-5.842-6.223 138.513 138.513 0 0 0-2.2-2.042c-3.356 3.881-7.041 7.708-10.525 10.425zm-6.858 3.951c-5.918 2.524-11.243 3.523-21.828 4.805-12.857 1.558-17.696 3.212-22.34 8.87a28.585 28.585 0 0 0-2.872 4.184c-4.833 8.647-3.64 18.04 1.467 27.314 1.003 1.823 3.858 5.86 4.157 6.226.167.203 18.13.165 28.86.173 15.684.012 30.736.022 44.472.028 36.834.015 58.891.024 60.574-.028 0-.504-.013-.758.001-1.275.095-3.492.042-5.619-.462-22.034a1352.2 1352.2 0 0 1-.345-12.713c-.333-15.44.855-32.03.57-32.148-.57 0-.866.024-2.002 0-7.452-.157-10.246-.261-15.47-.717-7.747-.677-15.11-1.879-22.084-3.782-7.361-2.008-14.01-4.733-19.816-8.292-.096-.059-.89-.547-1.038-.628-1.182-.652-1.626-.664-2.515.137 0 0-2.804 4.13-6.865 9.314a155.14 155.14 0 0 1 2.68 2.482 93.651 93.651 0 0 1 6.391 6.809c3.312 3.917 5.949 7.777 7.668 11.514 3.577 7.78 2.98 14.85-3.298 19.62-3.159 2.401-6.723 3.331-10.43 2.838-6.373-.848-12.5-5.634-18.564-13.028-2.205-2.688-4.248-5.55-6.087-8.412-.247-.385-.545-.836-.824-1.257z" fill="inherit" fill-rule="evenodd" stroke="none"></path></symbol><symbol viewBox="0 0 220 205" id="svg-icon-34" fill="inherit" stroke="inherit"><path d="M115.397 37.458a11.526 11.526 0 0 0 5.962-4.421c15.311 2.538 28.155 10.128 38.872 22.262 11.541 13.068 20.341 31.105 26.656 52.865 4.872 16.787 8.003 34.825 9.727 52.923a321.953 321.953 0 0 1 1.217 17.875c.076 1.95.124 3.702.15 5.239.016.986.02 1.72.02 2.184-.018 2.797 2.206 5.05 4.967 5.067a5 5 0 0 0 5.032-4.969c.002-.595-.003-1.395-.02-2.448-.028-1.61-.078-3.438-.157-5.464-.22-5.618-.623-11.81-1.254-18.433-1.78-18.676-5.014-37.312-10.078-54.761-6.693-23.062-16.115-42.376-28.765-56.698-12.234-13.851-27.158-22.62-44.823-25.524-1.433-4.72-5.818-8.155-11.006-8.155-4.944 0-9.159 3.119-10.784 7.496-19.873 1.972-36.464 11.04-49.839 26.183C38.624 63 29.202 82.315 22.51 105.377c-5.064 17.45-8.3 36.085-10.079 54.761a331.912 331.912 0 0 0-1.254 18.433c-.079 2.026-.13 3.853-.156 5.464a126.544 126.544 0 0 0-.02 2.381c.017 2.829 2.27 5.053 5.031 5.036A5 5 0 0 0 21 186.42c-.001-.5.003-1.233.02-2.22.025-1.536.073-3.289.15-5.238.212-5.438.603-11.446 1.216-17.875 1.724-18.098 4.856-36.136 9.727-52.923 6.315-21.76 15.115-39.797 26.657-52.865 11.73-13.282 26.01-21.12 43.285-22.847a11.545 11.545 0 0 0 5.342 4.634v72.852c-3.268-2.468-6.492-5.306-9.685-8.55-15.594-15.842-29.18-15.261-35.304-.125-4.71 11.642-4.133 31.008 1.146 47.574 5.188 16.284 25.795 22.163 54.855 20.436 21.534-1.28 46.258-7.172 51.629-11.978 10.497-9.395 9.65-24.52-3.834-30.401-3.132-1.366-6.257-1.806-13.454-2.28-12.084-.796-17.24-1.476-24.844-3.919a66.626 66.626 0 0 1-12.51-5.488v-77.75zm-8 82.245c-5.26-3.414-10.377-7.614-15.386-12.702-6.452-6.555-11.683-9.448-15.352-9.291-2.772.118-5.077 2.207-6.835 6.553-3.927 9.705-3.405 27.217 1.352 42.146 3.642 11.428 21.08 16.404 46.759 14.878 19.795-1.177 43.19-6.752 46.767-9.954 6.454-5.775 6.007-13.746-1.697-17.106-1.95-.851-4.588-1.222-10.78-1.63-12.718-.838-18.346-1.58-26.766-4.285a74.395 74.395 0 0 1-10.062-4.061v7.291c4.64 1.481 8 5.827 8 10.958 0 6.351-5.15 11.5-11.5 11.5-6.352 0-11.5-5.149-11.5-11.5 0-4.754 2.885-8.835 7-10.586v-12.21z" fill="inherit" fill-rule="evenodd" stroke="none"></path></symbol><symbol viewBox="0 0 220 205" id="svg-icon-35" fill="inherit" stroke="inherit"><path d="M64 115.261a24.133 24.133 0 0 1 13.934 12.726c1.808.02 4.098.25 6.81.803 4.787.975 9.957 2.79 15.405 5.626 7.715-2.485 12.878-3.833 15.373-3.833 8.013 0 21.787 4.797 25.224 9.928 1.828 2.729 4.737 8.873 6.448 13.837 1.074 3.117 1.708 5.78 1.789 8.512 4.937-2.707 8.445-4.959 8.979-6.032.015-.366-.017-.892-.104-1.55-.188-1.432-.613-3.345-1.258-5.67-1.188-4.284-3.075-9.803-5.512-16.247a427.46 427.46 0 0 0-1.974-5.12 601.72 601.72 0 0 0-6.225-15.19 608.321 608.321 0 0 0-2.824-6.536 3.745 3.745 0 0 1 1.906-4.941c1.89-.838 4.103.015 5.15 2.381l.584 1.335a626.167 626.167 0 0 1 2.077 4.832 609.069 609.069 0 0 1 6.303 15.381c.699 1.78 1.37 3.518 2.01 5.209 6.145 16.254 8.69 25.43 6.637 29.44-1.978 3.861-11.203 9.277-25.722 16.176-11.62 5.522-23.888 10.54-27.963 11.397-3.404.716-9.35.143-17.644-1.343a243.074 243.074 0 0 1-6.008-1.16 328.809 328.809 0 0 1-11.087-2.481c.301-.177-2.598 1.365-3.097 1.743a43.694 43.694 0 0 0 4.592 3.714c9.985 7.023 21.586 9.371 34.697 4.359 6.324-2.417 13.448-4.636 22.78-7.205 2.858-.787 18.246-4.873 22.257-6.005 8.21-2.317 13.791-4.223 17.696-6.148 2.044-1.007 3.524-1.98 4.423-2.873.642-.64.854-1.07.854-1.378 0-10.828-17.425-87.867-21.782-96.037-1.63-3.056-4.431-4.334-12.388-5.85-.84-.16-3.962-.735-4.484-.833-1.919-.36-3.496-.674-5.085-1.018-4.135-.895-7.94-1.92-11.813-3.237-3.32-1.13-4.006-4.301-2.607-6.996.538-1.037 3.386-4.752 3.452-4.492-.036.766-15.688-17.26-22.946-31.122-2.293-4.379-9.87-8.012-18.882-8.739-9.794-.79-18.996 1.928-24.442 7.676-10.739 11.333-4.77 37.712-4.125 37.327.385-.23 4.012-2.543 4.012-2.543s3.426 5.332 4.005 6.108a60.01 60.01 0 0 0 5.61 6.514c7.065 7.066 14.22 10.37 20.85 8.41a3.745 3.745 0 1 1 2.122 7.184c-9.895 2.923-19.469-1.497-28.27-10.3-2.339-2.34-6.028-8.048-6.827-7.625-.359.19-3.542 2.352-5.65 3.128-.974.358-1.885-.291-1.885-.291l-1.222-3.317c-3.595-9.756-5.288-17.543-4.964-25.048.392-9.101 3.867-17.27 10.907-24.7C61.272 5.574 72.697 2.2 84.576 3.158c11.318.912 21.213 5.657 24.916 12.73 6.876 13.133 13.805 22.552 22.857 30.83 2.02 1.846 1.91 4.22.753 6.366-.517.958-1.562 2.48-1.562 3.258 0 .779 2.946.71 6.816 1.547a175.4 175.4 0 0 0 4.882.976c.501.095 3.637.673 4.504.838 10.053 1.915 14.544 3.964 17.594 9.683 4.965 9.31 22.664 87.556 22.664 99.561 0 4.595-3.415 7.99-9.455 10.968-4.424 2.181-10.352 4.206-18.974 6.64-4.08 1.15-19.499 5.245-22.303 6.017-9.12 2.51-16.038 4.665-22.094 6.98-15.663 5.987-29.802 3.125-41.68-5.228a50.704 50.704 0 0 1-7.603-6.555c-3.452 1.158-6.26 1.38-8.569.626-6.122-1.999-9.912-7.952-12.2-16.412-.904-3.34-1.51-6.879-1.882-10.413a73.376 73.376 0 0 1-.28-3.391C36.363 153.888 32 146.446 32 137.985c0-13.293 10.767-24.07 24.05-24.07.141 0 .282.001.423.004a6678.602 6678.602 0 0 0 3.514-8.832l.036-.092c.68-1.713 1.295-3.267 1.83-4.623 1.224-3.1 3.67-5.85 6.96-8.385a42.182 42.182 0 0 1 4.763-3.157c.977-.56 1.752-.96 2.229-1.185a3.745 3.745 0 0 1 3.207 6.768 33.889 33.889 0 0 0-1.715.917c-1.34.768-2.68 1.64-3.914 2.59-2.316 1.785-3.931 3.602-4.563 5.202-.537 1.36-1.154 2.918-1.835 4.635l-.037.093A5716.064 5716.064 0 0 1 64 115.26zm15.985 20.356a24.378 24.378 0 0 1-.128 5.803c3.249-1.176 6.55-2.35 9.788-3.474a45.646 45.646 0 0 0-6.397-1.818 34.527 34.527 0 0 0-3.263-.511zM50.763 161.47a24.11 24.11 0 0 0 5.287.584c8.653 0 16.238-4.573 20.475-11.435.675-.251 1.035-.385 1.443-.535 1.18-.435 2.504-.92 3.944-1.442a757.104 757.104 0 0 1 12.378-4.376 476.56 476.56 0 0 1 2.72-.925c9.637-3.249 16.693-5.269 18.512-5.269 5.771 0 17.255 4 19.002 6.607 1.438 2.148 4.076 7.718 5.589 12.109.853 2.474 1.385 3.886 1.385 4 0 .114-1.916-1.369-7.33-6.169-8.658-7.681-10.971-9.421-14.573-9.421-2.354 0-5.09 1.67-11.636 6.343-2.456 1.753-14.004 10.244-17.042 12.43a442.246 442.246 0 0 1-5.073 3.602c-13.761 9.614-23.414 14.612-26.197 13.703-3.06-.999-5.604-4.995-7.296-11.248-.732-2.704-1.25-5.62-1.588-8.558zM39.49 137.985c0-9.158 7.415-16.58 16.56-16.58 9.146 0 16.56 7.422 16.56 16.58 0 9.157-7.414 16.58-16.56 16.58-9.145 0-16.56-7.423-16.56-16.58zM85.196 177.1a332.39 332.39 0 0 0 4.938-3.389 449.643 449.643 0 0 0 5.158-3.662c3.084-2.22 14.616-10.699 17.018-12.413 2.51-1.792 4.404-3.078 5.825-3.946.715-.436 1.288-.753 1.699-.942a2.8 2.8 0 0 1 .297-.123 1.826 1.826 0 0 1-.536.061c.08.059.29.15.55.284.615.32 1.393.83 2.321 1.53 1.577 1.186 2.883 2.307 6.428 5.452l.305.27c4.622 4.098 7.515 6.494 9.899 7.744-11.5 5.66-24.851 11.432-29.592 12.428-2.084.439-7.53-.086-14.782-1.385-1.861-.333-3.81-.71-5.823-1.124-1.241-.255-2.48-.518-3.705-.785z" fill="inherit" fill-rule="evenodd" stroke="none"></path></symbol><symbol viewBox="0 0 221 205" id="svg-icon-4" fill="inherit" stroke="inherit"><path d="M118.955 53.97c32.44 2.63 59.29 21.998 69.019 48.074 1.431-.25 2.906-.38 4.412-.38 13.531 0 24.5 10.522 24.5 23.5 0 12.979-10.969 23.5-24.5 23.5-1.9 0-3.75-.207-5.525-.6-11.39 26.63-40.884 45.6-75.475 45.6-34.684 0-64.245-19.074-75.567-45.818-2.05.534-4.207.818-6.433.818-13.53 0-24.5-10.521-24.5-23.5 0-12.978 10.97-23.5 24.5-23.5 1.836 0 3.625.194 5.346.561 10.086-27.288 38.907-47.273 73.293-48.5 2.07-8.155 8.045-36.644-8.823-38.911-16.705-1.648-23.006 10.756-18.138 19.731 3.867 4.976 12.653-1.09 12.452-7.044 1.798-2.954 5.735-2.258 7.807-.284 4.071 1.974.25 23.57-21.596 17.985C58.881 37.617 69.721-.244 102.192 5.613c26.25 4.735 20.088 36.398 16.763 48.357zm16.94 86.694h8.991c0 13.807-15.222 25-34 25-18.777 0-34-11.193-34-25h8.097c.778 8.904 11.877 15.965 25.456 15.965 13.579 0 24.678-7.061 25.456-15.965zm43.965-29.307c-6.45-27.778-34.676-48.693-68.521-48.693-33.999 0-62.328 21.105-68.608 49.07-2.101-.49-4.337-.957-6.656-1.471-12.254-2.718-22.189 4.102-22.189 14.75 0 10.649 9.935 17.469 22.189 14.751 2.562-.757 5.023-1.377 7.312-1.982 7.409 26.656 35.021 46.456 67.952 46.456 32.783 0 60.295-19.623 67.85-46.098 2.058.478 4.244.935 6.509 1.437 12.254 2.718 22.188-4.103 22.188-14.752 0-10.648-9.934-17.469-22.188-14.751-2.02.448-3.978.86-5.838 1.283zm-90.474 13.307a7.5 7.5 0 1 0 0-15 7.5 7.5 0 0 0 0 15zm42 0a7.5 7.5 0 1 0 0-15 7.5 7.5 0 0 0 0 15z" fill="inherit" fill-rule="evenodd" stroke="none"></path></symbol><symbol viewBox="0 0 221 205" id="svg-icon-5" fill="inherit" stroke="inherit"><path d="M100.101 63.438a78.246 78.246 0 0 0-10.282 2.145c-5.219 3.265-11.792 6.17-17.793 7.564-14.954 8.84-25.76 22.592-29.352 38.587-2.1-.49-4.337-.957-6.656-1.471-12.254-2.718-22.188 4.102-22.188 14.75 0 10.649 9.934 17.469 22.188 14.751 2.563-.757 5.023-1.377 7.313-1.982 7.408 26.656 35.02 46.456 67.95 46.456 32.784 0 60.296-19.623 67.851-46.098 2.059.478 4.244.935 6.51 1.437 12.254 2.718 22.188-4.103 22.188-14.752 0-10.648-9.934-17.469-22.189-14.751-2.02.448-3.978.86-5.838 1.283-3.636-15.664-14.198-29.145-28.786-37.925-5.865-1.497-12.175-4.357-17.177-7.533a77.555 77.555 0 0 0-6.576-1.639 17.201 17.201 0 0 1-3.083 2.707c2.628 10.788 5.447 32.78-13.984 36.284-25.918 4.676-34.57-25.545-17.93-31.6 17.437-4.457 20.487 12.78 17.237 14.356-1.654 1.576-4.797 2.131-6.232-.227.16-4.753-6.853-9.594-9.94-5.622-3.884 7.164 1.145 17.065 14.479 15.75 10.941-1.471 9.842-16.763 8.159-25.935-5.794.618-11.867-1.521-15.836-6.494l-.033-.041zm29.52-32.36c9.958-7.998 31.23-16.14 37.303-8.53 6.966 8.728 6.942 40.205 0 48.93-.253.32-.533.61-.837.875 9.94 8.025 17.546 18.208 21.83 29.691 1.431-.25 2.906-.38 4.413-.38 13.53 0 24.5 10.522 24.5 23.5 0 12.979-10.97 23.5-24.5 23.5-1.9 0-3.75-.207-5.526-.6-11.39 26.63-40.884 45.6-75.474 45.6-34.685 0-64.246-19.074-75.568-45.818-2.05.534-4.206.818-6.432.818-13.531 0-24.5-10.521-24.5-23.5 0-12.978 10.969-23.5 24.5-23.5 1.836 0 3.625.194 5.345.561 4.414-11.941 12.415-22.484 22.9-30.668a6.59 6.59 0 0 1-.53-.59c-6.942-8.726-6.966-40.203 0-48.93 6.764-8.475 32.38 2.586 40.224 11.23.752-1.743 1.678-3.339 2.776-4.72 6.947-8.732 20.913-8.727 27.88 0a19.035 19.035 0 0 1 1.696 2.531zM94.89 43.835c-7.17-5.75-26.998-17.912-30.422-12.544-3.586 5.623-3.858 22.02 0 29.846 3.736 7.578 23.657-5.058 30.633-10.779a36.258 36.258 0 0 1-.211-6.523zm37.927-2.693c8.727-6.084 23.786-14.42 26.729-9.806 3.586 5.624 3.858 22.02 0 29.846-3.223 6.538-18.492-1.97-27.104-8.102.781-3.847.907-7.995.375-11.938zm3.022 99.522h8.99c0 13.807-15.222 25-34 25-18.777 0-34-11.193-34-25h8.097c.778 8.904 11.878 15.965 25.456 15.965 13.58 0 24.679-7.061 25.457-15.965zm-46.51-16a7.5 7.5 0 1 0 0-15 7.5 7.5 0 0 0 0 15zm42 0a7.5 7.5 0 1 0 0-15 7.5 7.5 0 0 0 0 15zm-26.19-89.509c4.409-5.541 13.27-5.539 17.691 0 4.42 5.538 4.405 16.628 0 22.166-4.405 5.537-13.143 5.627-17.634 0-4.492-5.628-4.466-16.625-.057-22.166z" fill="inherit" fill-rule="evenodd" stroke="none"></path></symbol><symbol viewBox="0 0 221 205" id="svg-icon-6" fill="inherit" stroke="inherit"><path d="M110.322 176.02c.07.035.142.069.213.103v-.205c114.932-55.371 73.153-127.16 46.29-127.159-27.657 0-44.45 30.147-46.503 34.04-2.054-3.893-18.847-34.04-46.503-34.04-26.864 0-68.643 71.788 46.29 127.159v.205l.213-.102zm.526 10.445l.085.037v-.074C242.17 128.946 197.715 39 160.67 39c-33.607 0-48.58 25.192-49.823 27.39C109.606 64.191 94.632 39 61.026 39c-37.044 0-81.5 89.946 49.737 147.428v.074l.085-.037z" fill="inherit" fill-rule="evenodd" stroke="none"></path></symbol><symbol viewBox="0 0 221 205" id="svg-icon-7" fill="inherit" stroke="inherit"><path d="M151.031 81.414c.526-.481 1.035-.98 1.526-1.495 6.104-4.31 7.256-2.548 18.308-5.072 5.232-1.194 10.536-3.313 14.87-6.954 2.662-2.237 2.994-3.699.252-4.474-1.596-.45-14.55-.377-25.094-.236a31.82 31.82 0 0 0 .409-5.096c0-17.467-14.16-31.627-31.627-31.627-17.468 0-31.628 14.16-31.628 31.627 0 5.113 1.214 9.944 3.37 14.218.457 1.22 1.434 2.758 2.83 4.592.348.47.71.93 1.083 1.38.181.225.368.454.56.687 1.613 1.96 6.545 7.563 7.965 9.115 12.708 13.879 1.613 24.303-3.644 28.383-13.493 9.868-27.295 10.765-38.206 8.305-17.67-3.983-30.347-17.972-32.374-21.807-3.35-6.338-5.63-4.608-6.741-.23-14.169 55.858 36.155 80.36 75.845 80.467 5.35.014 10.39-.294 15.143-.96 15.52-2.177 24.932-6.549 34.05-15.009a33.286 33.286 0 0 0 6.719-7.953c3.156-5.204 4.959-11.36 4.959-17.958 0-14.346-8.93-26.606-21.534-31.526-13.627-6.613-.23-26.125 2.93-28.306.027-.019.037-.042.03-.07zm5.457 23.986c13.72 6.422 23.223 20.35 23.223 36.499 0 3.498-.426 6.892-1.23 10.128-.755 4.385-2.264 8.292-4.473 11.197-.296.389-.593.773-.892 1.153a39.458 39.458 0 0 1-9.761 10.32c-13.751 11.905-30.518 16.517-52.32 16.707-68.059.59-107.906-44.063-80.351-106.281 2.73-5.222 6.094-2.778 7.625.294 1.44 2.89 28.711 50.481 68.16 23.277 4.143-4.084 6.298-10.227-2.18-18.287-9.566-7.523-15.71-19.202-15.71-32.317 0-22.693 18.397-41.09 41.09-41.09 21.762 0 39.572 16.916 40.999 38.315 12.014-.166 23.572-.095 25.396.728 3.991 1.802 5.68 5.2 1.802 10.401-10.455 14.023-24.786 18.334-36.093 19.253a.565.565 0 0 1-.015.012.803.803 0 0 0-.085-.004 61.67 61.67 0 0 1-.16.012c-3.276.483-16.392 14.861-5.032 19.643a.726.726 0 0 1 .007.04zm-10.545-42.02a6.103 6.103 0 1 0 0-12.206 6.103 6.103 0 0 0 0 12.205z" fill="inherit" fill-rule="evenodd" stroke="none"></path></symbol><symbol viewBox="0 0 221 205" id="svg-icon-8" fill="inherit" stroke="inherit"><path d="M141.334 71.009c24.07.544 43.253 1.514 45.961 2.72 7.818 3.481 7.554 41.62 0 47.16-.716.526-2.65.984-5.568 1.38 1.786 23.89 2.769 53.995-2.92 59.929-9.704 10.12-129.814 8.808-138.652 0-5.227-5.21-4.27-35.936-2.617-60.17-3.733-.354-6.132-.736-6.815-1.139-6.099-3.597-3.685-42.169 0-47.16 1.545-2.092 27.936-3.042 58.646-3.183-10.641-2.28-21.882-7.66-25.752-19.92-8.061-25.536 12.842-38.38 33.51-28.042 6.422 3.213 10.262 9.187 12.504 15.896 2.305-4.305 5.551-7.947 10.084-10.214 20.667-10.338 41.57 2.506 33.509 28.043-2.148 6.803-6.565 11.488-11.89 14.7zm-13.46 7.617c-12.93-.159-26.763-.219-39.615-.157v36.547c12.856.18 26.687.254 39.614.193V78.626zm10.374.151c21.759.373 39.079 1.034 41.53 1.856 7.093 2.38 6.853 28.443 0 32.23-2.391 1.32-19.73 2.019-41.53 2.264v-36.35zm-17.92 101.971a637.48 637.48 0 0 1-22.637-.084v-56.45c7.498.093 15.137.141 22.637.14v56.394zm10.375-.245c19.86-.664 36.267-2.42 39.429-5.425 5.354-5.09 4.032-32.225 2.278-51.94-10.481.7-25.421 1.07-41.707 1.18v56.185zM77.883 78.548c-21.928.235-38.988.885-40.164 2.085-3.344 3.411-5.534 29.77 0 32.23 1.916.85 18.725 1.567 40.164 1.981V78.548zm9.432 101.802c-20.244-.799-36.981-2.612-39.91-5.272-4.943-4.49-3.64-32.468-2.01-52.461 10.472.642 25.509 1.145 41.92 1.44v56.293zm16.45-117.526s3.846-24.62-9.226-31.159c-13.072-6.539-26.293 1.585-21.195 17.737 5.099 16.152 30.421 13.422 30.421 13.422zm11.197 3.796s-3.846-24.62 9.226-31.16c13.073-6.538 26.294 1.586 21.195 17.738S114.962 66.62 114.962 66.62z" fill="inherit" fill-rule="evenodd" stroke="none"></path></symbol><symbol viewBox="0 0 220 205" id="svg-icon-9" fill="inherit" stroke="inherit"><path d="M153.574 67.448h25.544s6.183 0 6.183 6.808c0 0 .223 113.438 0 119.74-.224 6.302-5.688 8.311-5.688 8.311H62.84l-.094-.002H28.55s-5.401 0-5.401-4.654c0-4.655-.231-77.958-.116-83.592.116-5.634 4.23-5.634 4.23-5.634h28.721c-.02-16.877-.02-30.205.027-32.884.143-8.093 5.235-8.093 5.235-8.093H88.01C88.18 59.594 90.6 26 119.515 26c29.678 0 33.587 34.916 34.059 41.448zm-11.17 0h-43.55c-.005-4.413.77-31.548 20.66-31.69 19.14-.136 22.394 25.696 22.89 31.69zm-14.882 126.228h44.883s4.771-1.754 4.966-7.257c.195-5.502 0-104.549 0-104.549 0-5.944-5.398-5.944-5.398-5.944H69.053s-4.445 0-4.57 7.066c-.038 2.163-.041 12.274-.027 25.433h58.031s4.995 0 4.995 4.74c0 0 .15 65.515.04 80.511zm-96.704-71.943c.098-4.58 3.579-4.58 3.579-4.58h80.573s4.226 0 4.226 3.853c0 0 .153 64.198 0 67.764-.153 3.567-3.888 4.704-3.888 4.704H35.487s-4.57 0-4.57-3.784-.196-63.377-.099-67.957zm62.832-19.43a7.536 7.536 0 1 0 0-15.073 7.536 7.536 0 0 0 0 15.072zm52.752 0a7.536 7.536 0 1 0 0-15.073 7.536 7.536 0 0 0 0 15.072zm-96.828 30.143s-.915 29.202 23.428 29.202c24.344 0 25.369-25.87 25.369-28.769 0-7.6-9.689-8.23-9.689-.138 0 7.497-2.727 20.048-15.68 20.048s-13.955-17.538-13.955-19.58c0-7.703-9.473-7.808-9.473-.763z" fill="inherit" fill-rule="evenodd" stroke="none"></path></symbol><symbol viewBox="0 0 1792 1792" id="svg-instagram" fill="inherit" stroke="inherit"><path d="M1152 896q0-106-75-181t-181-75-181 75-75 181 75 181 181 75 181-75 75-181zm138 0q0 164-115 279t-279 115-279-115-115-279 115-279 279-115 279 115 115 279zm108-410q0 38-27 65t-65 27-65-27-27-65 27-65 65-27 65 27 27 65zM896 266q-7 0-76.5-.5t-105.5 0-96.5 3-103 10T443 297q-50 20-88 58t-58 88q-11 29-18.5 71.5t-10 103-3 96.5 0 105.5.5 76.5-.5 76.5 0 105.5 3 96.5 10 103T297 1349q20 50 58 88t88 58q29 11 71.5 18.5t103 10 96.5 3 105.5 0 76.5-.5 76.5.5 105.5 0 96.5-3 103-10 71.5-18.5q50-20 88-58t58-88q11-29 18.5-71.5t10-103 3-96.5 0-105.5-.5-76.5.5-76.5 0-105.5-3-96.5-10-103T1495 443q-20-50-58-88t-88-58q-29-11-71.5-18.5t-103-10-96.5-3-105.5 0-76.5.5zm768 630q0 229-5 317-10 208-124 322t-322 124q-88 5-317 5t-317-5q-208-10-322-124t-124-322q-5-88-5-317t5-317q10-208 124-322t322-124q88-5 317-5t317 5q208 10 322 124t124 322q5 88 5 317z" stroke="none"></path></symbol><symbol viewBox="0 0 1792 1792" id="svg-linkedin" fill="inherit" stroke="inherit"><path d="M477 625v991H147V625h330zm21-306q1 73-50.5 122T312 490h-2q-82 0-132-49t-50-122q0-74 51.5-122.5T314 148t133 48.5T498 319zm1166 729v568h-329v-530q0-105-40.5-164.5T1168 862q-63 0-105.5 34.5T999 982q-11 30-11 81v553H659q2-399 2-647t-1-296l-1-48h329v144h-2q20-32 41-56t56.5-52 87-43.5T1285 602q171 0 275 113.5t104 332.5z" stroke="none"></path></symbol><symbol viewBox="0 0 18 14" id="svg-login" fill="inherit" stroke="inherit"><path d="M6 9v2.005c0 .54.317.679.707.289l3.597-3.59a.994.994 0 0 0 0-1.412L6.707 2.705c-.394-.392-.707-.26-.707.29V5H.997C.453 5 0 5.452 0 6.01v1.98C0 8.558.446 9 .997 9H6zm6.014 3c1.705 0 2.993-.967 2.993-1.997V3.997c0-1.03-1.288-1.997-2.993-1.997H9C7.516 2 7.469 0 9 0h3.014c2.706 0 4.993 1.717 4.993 3.997v6.006c0 2.28-2.288 3.997-4.993 3.997H9c-1.452 0-1.525-2 0-2h3.014z" fill="inherit" fill-rule="evenodd" stroke="none"></path></symbol><symbol viewBox="0 0 15 14" id="svg-logout" fill="inherit" stroke="inherit"><path d="M10 9v2.005c0 .54.316.679.706.289l3.589-3.59a.995.995 0 0 0 0-1.412l-3.59-3.587c-.392-.392-.705-.26-.705.29V5H4.997C4.453 5 4 5.452 4 6.01v1.98C4 8.558 4.446 9 4.997 9H10zm-5.007 3C3.288 12 2 11.033 2 10.003V3.997C2 2.967 3.288 2 4.993 2h3.014c1.51 0 1.507-2 0-2H4.993C2.287 0 0 1.717 0 3.997v6.006C0 12.283 2.288 14 4.993 14h3.014c1.492 0 1.53-2 0-2H4.993z" fill="inherit" fill-rule="evenodd" stroke="none"></path></symbol><symbol viewBox="0 0 1792 1792" id="svg-pinterest" fill="inherit" stroke="inherit"><path d="M1664 896q0 209-103 385.5T1281.5 1561 896 1664q-111 0-218-32 59-93 78-164 9-34 54-211 20 39 73 67.5t114 28.5q121 0 216-68.5t147-188.5 52-270q0-114-59.5-214T1180 449t-255-63q-105 0-196 29t-154.5 77-109 110.5-67 129.5T377 866q0 104 40 183t117 111q30 12 38-20 2-7 8-31t8-30q6-23-11-43-51-61-51-151 0-151 104.5-259.5T904 517q151 0 235.5 82t84.5 213q0 170-68.5 289T980 1220q-61 0-98-43.5T859 1072q8-35 26.5-93.5t30-103T927 800q0-50-27-83t-77-33q-62 0-105 57t-43 142q0 73 25 122l-99 418q-17 70-13 177-206-91-333-281T128 896q0-209 103-385.5T510.5 231 896 128t385.5 103T1561 510.5 1664 896z" stroke="none"></path></symbol><symbol viewBox="0 0 117 127" id="svg-placeholder" fill="inherit" stroke="inherit"><path d="M94.056 29.856h18.401s4.454 0 4.454 4.904c0 0 .16 81.713 0 86.253-.161 4.54-4.097 5.987-4.097 5.987H28.697l-.067-.002H3.997s-3.89 0-3.89-3.352c0-3.353-.167-56.156-.084-60.214s3.047-4.058 3.047-4.058h20.689c-.015-12.158-.015-21.758.02-23.688.102-5.83 3.77-5.83 3.77-5.83h19.28C46.952 24.2 48.695 0 69.523 0 90.9 0 93.717 25.15 94.056 29.856zm-8.045 0h-31.37c-.005-3.178.554-22.725 14.882-22.827 13.787-.098 16.13 18.51 16.488 22.827zm-10.72 90.927h32.33s3.437-1.264 3.578-5.228c.14-3.963 0-75.31 0-75.31 0-4.282-3.889-4.282-3.889-4.282H33.174s-3.203 0-3.292 5.09c-.028 1.558-.03 8.841-.02 18.32h41.802s3.598 0 3.598 3.414c0 0 .108 47.193.029 57.996zM5.63 68.96c.071-3.3 2.579-3.3 2.579-3.3h58.039s3.044 0 3.044 2.776c0 0 .11 46.244 0 48.813-.11 2.569-2.8 3.388-2.8 3.388H8.994s-3.292 0-3.292-2.726c0-2.725-.14-45.652-.07-48.951zm45.26-13.997a5.428 5.428 0 1 0 0-10.857 5.428 5.428 0 0 0 0 10.857zm38 0a5.428 5.428 0 1 0 0-10.857 5.428 5.428 0 0 0 0 10.857zM19.14 76.677s-.658 21.035 16.877 21.035c17.536 0 18.274-18.635 18.274-20.723 0-5.475-6.979-5.929-6.979-.1 0 5.4-1.964 14.441-11.295 14.441-9.33 0-10.052-12.633-10.052-14.104 0-5.549-6.824-5.624-6.824-.55z" fill="inherit" fill-rule="evenodd" stroke="none"></path></symbol><symbol viewBox="0 0 30 30" id="svg-play" fill="inherit" stroke="inherit"><path d="M15 30c8.284 0 15-6.716 15-15 0-8.284-6.716-15-15-15C6.716 0 0 6.716 0 15c0 8.284 6.716 15 15 15zm-3-9.67V11l9.33 4.665L12 20.33z" fill="inherit" fill-rule="evenodd" stroke="none"></path></symbol><symbol viewBox="0 0 340 199" id="svg-quick-view" fill="inherit" stroke="inherit"><path d="M161.576 59.303c2.875-.63 5.86-.962 8.924-.962 22.92 0 41.5 18.58 41.5 41.5s-18.58 41.5-41.5 41.5-41.5-18.58-41.5-41.5a42 42 0 0 1 .2-4.104 24.389 24.389 0 0 0 14.3 4.604c13.531 0 24.5-10.969 24.5-24.5a24.41 24.41 0 0 0-6.424-16.538zM.29 99.208l-.031.125H.32c33.335 132 302.272 132 339.527 0h.07l-.035-.125.035-.125h-.07c-37.255-132-306.192-132-339.527 0H.258l.031.125zM170 170.341c39.212 0 71-31.788 71-71s-31.788-71-71-71-71 31.788-71 71 31.788 71 71 71z" fill="inherit" fill-rule="evenodd" stroke="none"></path></symbol><symbol viewBox="0 0 32 25" id="svg-quote" fill="inherit" stroke="inherit"><path d="M14.633 17.347c0 2.177-.72 3.997-2.16 5.46C11.033 24.268 9.33 25 7.366 25c-1.964 0-3.683-.731-5.156-2.194C.737 21.344 0 19.592 0 17.551c0-2.04.884-4.524 2.652-7.449L8.544 0h5.696l-3.633 10.612c2.684 1.293 4.026 3.538 4.026 6.735zm17.367 0c0 2.177-.72 3.997-2.16 5.46C28.398 24.268 26.696 25 24.731 25c-1.964 0-3.682-.731-5.156-2.194-1.473-1.462-2.21-3.214-2.21-5.255 0-2.04.885-4.524 2.652-7.449L25.911 0h5.696l-3.634 10.612C30.658 11.905 32 14.15 32 17.347z" fill="inherit" fill-rule="evenodd" stroke="none"></path></symbol><symbol viewBox="0 0 15 15" id="svg-reload" fill="inherit" stroke="inherit"><path d="M13.929 7.5c-.653 0-.963.46-1.072.946-.391 1.749-2.053 4.411-5.357 4.411a5.357 5.357 0 0 1 0-10.714c1.2 0 2.3.403 3.193 1.071h-1.05a1.072 1.072 0 0 0 0 2.143h3.214c.592 0 1.072-.48 1.072-1.071V1.07a1.072 1.072 0 0 0-2.143 0v.278A7.449 7.449 0 0 0 7.5 0a7.5 7.5 0 1 0 0 15c5.346 0 7.5-5.09 7.5-6.362 0-.778-.569-1.138-1.071-1.138z" fill="inherit" fill-rule="evenodd" stroke="none"></path></symbol><symbol viewBox="0 0 20 20" id="svg-search" fill="inherit" stroke="inherit"><path d="M11.124 15.367l.001.001 3.528 3.527a3.005 3.005 0 0 0 4.246.004 3.005 3.005 0 0 0-.004-4.246l-3.527-3.528h-.001A7.977 7.977 0 0 0 16 8a8 8 0 1 0-4.876 7.367zM8 13A5 5 0 1 0 8 3a5 5 0 0 0 0 10z" fill="inherit" fill-rule="evenodd" stroke="none"></path></symbol><symbol viewBox="0 0 110 92" id="svg-sidebar" fill="inherit" stroke="inherit"><path d="M14.804 45.802l11.164 11.164-7.653 7.654L-.187 46.118l.316-.316-.316-.316 18.502-18.501 7.653 7.653-11.164 11.164zM47.204 0H110v10.824H47.204V0zm0 27.059H110v10.823H47.204V27.06zm0 27.059H110V64.94H47.204V54.118zm0 27.058H110V92H47.204V81.176z" fill="inherit" fill-rule="evenodd" stroke="none"></path></symbol><symbol viewBox="0 0 1792 1792" id="svg-star" fill="inherit" stroke="inherit"><path d="M1728 647q0 22-26 48l-363 354 86 500q1 7 1 20 0 21-10.5 35.5T1385 1619q-19 0-40-12l-449-236-449 236q-22 12-40 12-21 0-31.5-14.5T365 1569q0-6 2-20l86-500L89 695q-25-27-25-48 0-37 56-46l502-73L847 73q19-41 49-41t49 41l225 455 502 73q56 9 56 46z" stroke="none"></path></symbol><symbol viewBox="0 0 1792 1792" id="svg-tumblr" fill="inherit" stroke="inherit"><path d="M1328 1329l80 237q-23 35-111 66t-177 32q-104 2-190.5-26T787 1564t-95-106-55.5-120-16.5-118V676H452V461q72-26 129-69.5t91-90 58-102 34-99T779 12q1-5 4.5-8.5T791 0h244v424h333v252h-334v518q0 30 6.5 56t22.5 52.5 49.5 41.5 81.5 14q78-2 134-29z" stroke="none"></path></symbol><symbol viewBox="0 0 1792 1792" id="svg-twitter" fill="inherit" stroke="inherit"><path d="M1684 408q-67 98-162 167 1 14 1 42 0 130-38 259.5T1369.5 1125 1185 1335.5t-258 146-323 54.5q-271 0-496-145 35 4 78 4 225 0 401-138-105-2-188-64.5T285 1033q33 5 61 5 43 0 85-11-112-23-185.5-111.5T172 710v-4q68 38 146 41-66-44-105-115t-39-154q0-88 44-163 121 149 294.5 238.5T884 653q-8-38-8-74 0-134 94.5-228.5T1199 256q140 0 236 102 109-21 205-78-37 115-142 178 93-10 186-50z" stroke="none"></path></symbol><symbol viewBox="0 0 1792 1792" id="svg-user" fill="inherit" stroke="inherit"><path d="M1600 1405q0 120-73 189.5t-194 69.5H459q-121 0-194-69.5T192 1405q0-53 3.5-103.5t14-109T236 1084t43-97.5 62-81 85.5-53.5T538 832q9 0 42 21.5t74.5 48 108 48T896 971t133.5-21.5 108-48 74.5-48 42-21.5q61 0 111.5 20t85.5 53.5 62 81 43 97.5 26.5 108.5 14 109 3.5 103.5zm-320-893q0 159-112.5 271.5T896 896 624.5 783.5 512 512t112.5-271.5T896 128t271.5 112.5T1280 512z" stroke="none"></path></symbol><symbol viewBox="0 0 1792 1792" id="svg-vimeo" fill="inherit" stroke="inherit"><path d="M1709 518q-10 236-332 651-333 431-562 431-142 0-240-263-44-160-132-482-72-262-157-262-18 0-127 76l-77-98q24-21 108-96.5T320 359q156-138 241-146 95-9 153 55.5T795 472q44 287 66 373 55 249 120 249 51 0 154-161 101-161 109-246 13-139-109-139-57 0-121 26 120-393 459-382 251 8 236 326z" stroke="none"></path></symbol><symbol viewBox="0 0 23 20" id="svg-wishlist-off" fill="inherit" stroke="inherit"><path d="M11.437 7.692c.02-.06.041-.118.062-.176V3.585c-5.607-10-22.802 2.777 0 16.102v-3.092l-.054.032v.01a25.852 25.852 0 0 1-.008-.005l-.007.004v-.009c-18.1-10.586-3.907-20.304.007-8.935zm.064 8.902v3.085c22.802-13.325 5.607-26.103 0-16.102v3.935c3.997-11.073 17.917-1.435 0 9.082z" fill="inherit" fill-rule="evenodd" stroke="none"></path></symbol><symbol viewBox="0 0 272 233" id="svg-wishlist-on" fill="inherit" stroke="inherit"><path d="M135.695 42.202c66.16-117.992 269.043 32.762 0 189.985V42.202zm-.017.097c-66.16-117.992-269.043 32.762 0 189.985V42.299zM31 58.601c.002-11.835 16.913-13.483 19.315 0 4.519 25.377 6.931 47.092 36.805 74.913 15.406 14.348-4.92 21.15-11.85 14.71 0 0-44.28-33.076-44.27-89.623z" fill="inherit" fill-rule="evenodd" stroke="none"></path></symbol><symbol viewBox="0 0 1792 1792" id="svg-youtube" fill="inherit" stroke="inherit"><path d="M1099 1244v211q0 67-39 67-23 0-45-22v-301q22-22 45-22 39 0 39 67zm338 1v46h-90v-46q0-68 45-68t45 68zm-966-218h107v-94H266v94h105v569h100v-569zm288 569h89v-494h-89v378q-30 42-57 42-18 0-21-21-1-3-1-35v-364h-89v391q0 49 8 73 12 37 58 37 48 0 102-61v54zm429-148v-197q0-73-9-99-17-56-71-56-50 0-93 54V933h-89v663h89v-48q45 55 93 55 54 0 71-55 9-27 9-100zm338-10v-13h-91q0 51-2 61-7 36-40 36-46 0-46-69v-87h179v-103q0-79-27-116-39-51-106-51-68 0-107 51-28 37-28 116v173q0 79 29 116 39 51 108 51 72 0 108-53 18-27 21-54 2-9 2-58zM918 525V315q0-69-43-69t-43 69v210q0 70 43 70t43-70zm719 751q0 234-26 350-14 59-58 99t-102 46q-184 21-555 21t-555-21q-58-6-102.5-46t-57.5-99q-26-112-26-350 0-234 26-350 14-59 58-99t103-47q183-20 554-20t555 20q58 7 102.5 47t57.5 99q26 112 26 350zM639 0h102L620 399v271H520V399q-14-74-61-212Q422 84 394 0h106l71 263zm370 333v175q0 81-28 118-37 51-106 51-67 0-105-51-28-38-28-118V333q0-80 28-117 38-51 105-51 69 0 106 51 28 37 28 117zm335-162v499h-91v-55q-53 62-103 62-46 0-59-37-8-24-8-75V171h91v367q0 33 1 35 3 22 21 22 27 0 57-43V171h91z" stroke="none"></path></symbol></svg>
